<?xml version="1.0" encoding="UTF-8" standalone="no"?>
<svg
   viewBox="0 0 745.37982 378.81741"
   height="378.81741"
   width="745.37982"
   xml:space="preserve"
   id="svg2"
   version="1.1"
   sodipodi:docname="aligned.svg"
   inkscape:version="1.2.2 (b0a8486541, 2022-12-01)"
   xmlns:inkscape="http://www.inkscape.org/namespaces/inkscape"
   xmlns:sodipodi="http://sodipodi.sourceforge.net/DTD/sodipodi-0.dtd"
   xmlns="http://www.w3.org/2000/svg"
   xmlns:svg="http://www.w3.org/2000/svg"
   xmlns:rdf="http://www.w3.org/1999/02/22-rdf-syntax-ns#"
   xmlns:cc="http://creativecommons.org/ns#"
   xmlns:dc="http://purl.org/dc/elements/1.1/"><sodipodi:namedview
     id="namedview1732"
     pagecolor="#ffffff"
     bordercolor="#000000"
     borderopacity="0.25"
     inkscape:showpageshadow="2"
     inkscape:pageopacity="0.0"
     inkscape:pagecheckerboard="0"
     inkscape:deskcolor="#d1d1d1"
     showgrid="false"
     inkscape:zoom="1.3523352"
     inkscape:cx="199.65465"
     inkscape:cy="122.75064"
     inkscape:window-width="1920"
     inkscape:window-height="1131"
     inkscape:window-x="1920"
     inkscape:window-y="32"
     inkscape:window-maximized="1"
     inkscape:current-layer="g1487" /><metadata
     id="metadata8"><rdf:RDF><cc:Work
         rdf:about=""><dc:format>image/svg+xml</dc:format><dc:type
           rdf:resource="http://purl.org/dc/dcmitype/StillImage" /></cc:Work></rdf:RDF></metadata><defs
     id="defs6"><clipPath
       id="clipPath92"
       clipPathUnits="userSpaceOnUse"><path
         id="path90"
         d="m 356.211,923.602 h 1602.77 v 1603.24 H 356.211 Z" /></clipPath><clipPath
       id="clipPath160"
       clipPathUnits="userSpaceOnUse"><path
         id="path158"
         d="M 2101.99,923.602 H 3704.8 v 1603.24 H 2101.99 Z" /></clipPath><clipPath
       id="clipPath228"
       clipPathUnits="userSpaceOnUse"><path
         id="path226"
         d="m 3847.81,923.602 h 1602.77 v 1603.24 H 3847.81 Z" /></clipPath><clipPath
       id="clipPath354"
       clipPathUnits="userSpaceOnUse"><path
         id="path352"
         d="m 356.211,13.9805 h 1602.77 v 801.641 H 356.211 Z" /></clipPath><clipPath
       id="clipPath424"
       clipPathUnits="userSpaceOnUse"><path
         id="path422"
         d="M 2101.99,13.9805 H 3704.8 v 801.641 H 2101.99 Z" /></clipPath><clipPath
       id="clipPath494"
       clipPathUnits="userSpaceOnUse"><path
         id="path492"
         d="m 3847.81,13.9805 h 1602.77 v 801.641 H 3847.81 Z" /></clipPath></defs><g
     transform="matrix(1.3333333,0,0,-1.3333333,18.101146,355.15022)"
     id="g10"><g
       transform="matrix(0.1,0,0,0.1,77.451023,0)"
       id="g12"><g
         id="g746"
         transform="translate(-150.80811,85.407198)"><path
           style="fill:#000000;fill-opacity:0.972549;stroke:#dadada;stroke-width:28.3465;stroke-dasharray:none;stroke-opacity:1"
           d="M 755.04682,-202.91122 H 969.6008"
           id="path5417" /><text
           xml:space="preserve"
           style="font-style:normal;font-variant:normal;font-weight:normal;font-stretch:normal;font-size:120px;font-family:'open Sans';-inkscape-font-specification:'open Sans';text-align:start;text-anchor:start;fill:#000000;fill-opacity:0.972549;stroke:none;stroke-width:7.5;stroke-opacity:1"
           x="1011.9452"
           y="234.0831"
           id="text6359"
           transform="scale(1,-1)"><tspan
             sodipodi:role="line"
             id="tspan6357"
             style="stroke:none;stroke-width:7.5"
             x="1011.9452"
             y="234.0831">original ERP</tspan></text></g><g
         id="g810"
         transform="translate(-76.834236,-59.441023)"><g
           id="g1152"
           transform="translate(952.04297,132.57283)"><path
             style="fill:#000000;fill-opacity:0.972549;stroke:#b3b3b3;stroke-width:28.3465;stroke-dasharray:none;stroke-opacity:1"
             d="M 755.04682,-202.91122 H 969.6008"
             id="path804" /><text
             xml:space="preserve"
             style="font-style:normal;font-variant:normal;font-weight:normal;font-stretch:normal;font-size:120px;font-family:'open Sans';-inkscape-font-specification:'open Sans';text-align:start;text-anchor:start;fill:#000000;fill-opacity:0.972549;stroke:none;stroke-width:7.5;stroke-opacity:1"
             x="1011.9452"
             y="234.0831"
             id="text808"
             transform="scale(1,-1)"><tspan
               sodipodi:role="line"
               id="tspan806"
               style="stroke:none;stroke-width:7.5"
               x="1011.9452"
               y="234.0831">iteration 1</tspan></text></g></g><g
         id="g926"
         transform="translate(767.51954,-155.48765)"><g
           id="g818"
           transform="translate(1034.6826,228.61946)"><path
             style="fill:#000000;fill-opacity:0.972549;stroke:#8f8f8f;stroke-width:28.3465;stroke-dasharray:none;stroke-opacity:1"
             d="M 755.04682,-202.91122 H 969.6008"
             id="path812" /><text
             xml:space="preserve"
             style="font-style:normal;font-variant:normal;font-weight:normal;font-stretch:normal;font-size:120px;font-family:'open Sans';-inkscape-font-specification:'open Sans';text-align:start;text-anchor:start;fill:#000000;fill-opacity:0.972549;stroke:none;stroke-width:7.5;stroke-opacity:1"
             x="1011.9452"
             y="234.0831"
             id="text816"
             transform="scale(1,-1)"><tspan
               sodipodi:role="line"
               id="tspan814"
               style="stroke:none;stroke-width:7.5"
               x="1011.9452"
               y="234.0831">iteration 32</tspan></text></g></g></g><text
       xml:space="preserve"
       style="font-size:12px;fill:#000000;stroke-width:0.75"
       x="119.72038"
       y="6.4333382"
       id="text1946"
       transform="matrix(0,1,1,0,0,0)"><tspan
         sodipodi:role="line"
         id="tspan1944"
         style="font-style:normal;font-variant:normal;font-weight:normal;font-stretch:normal;font-size:12px;font-family:'open Sans';-inkscape-font-specification:'open Sans';stroke-width:0.75"
         x="119.72038"
         y="6.4333382">Cz amplitude (µV)</tspan></text><text
       xml:space="preserve"
       style="font-style:normal;font-variant:normal;font-weight:normal;font-stretch:normal;font-size:12px;font-family:'open Sans';-inkscape-font-specification:'open Sans';fill:#000000;stroke-width:0.75"
       x="42.482243"
       y="-4.8746881"
       id="text2069"
       transform="matrix(0,1,1,0,0,0)"><tspan
         sodipodi:role="line"
         id="tspan2067"
         style="text-align:center;text-anchor:middle;stroke-width:0.75"
         x="42.482243"
         y="-4.8746881">PO7,PO8</tspan><tspan
         sodipodi:role="line"
         style="text-align:center;text-anchor:middle;stroke-width:0.75"
         x="42.482243"
         y="10.125312"
         id="tspan2073">amplitude. (µV)</tspan></text><g
       id="g1487"><path
         id="path30"
         style="fill:#000000;fill-opacity:1;fill-rule:nonzero;stroke:none"
         d="m 149.379,1000.31 h 62.582 v 8.3203 h -62.582 z"
         transform="scale(0.1)" /><path
         id="path36"
         style="fill:#000000;fill-opacity:1;fill-rule:nonzero;stroke:none"
         d="m 149.379,1222.5 h 62.582 v 8.3203 h -62.582 z"
         transform="scale(0.1)" /><g
         id="g4229"
         transform="scale(0.1)"><path
           id="path200"
           style="fill:none;stroke:#000000;stroke-width:8;stroke-linecap:butt;stroke-linejoin:round;stroke-miterlimit:4;stroke-dasharray:none;stroke-opacity:1"
           d="m 4092.07,1455.47 v -35" /><path
           id="path202"
           style="fill:none;stroke:#000000;stroke-width:8;stroke-linecap:butt;stroke-linejoin:round;stroke-miterlimit:4;stroke-dasharray:none;stroke-opacity:1"
           d="m 4460.74,1455.47 v -35" /><path
           id="path204"
           style="fill:none;stroke:#000000;stroke-width:8;stroke-linecap:butt;stroke-linejoin:round;stroke-miterlimit:4;stroke-dasharray:none;stroke-opacity:1"
           d="m 4829.38,1455.47 v -35" /><path
           id="path206"
           style="fill:none;stroke:#000000;stroke-width:8;stroke-linecap:butt;stroke-linejoin:round;stroke-miterlimit:4;stroke-dasharray:none;stroke-opacity:1"
           d="m 5198.01,1455.47 v -35" /><path
           id="path208"
           style="fill:none;stroke:#000000;stroke-width:8;stroke-linecap:butt;stroke-linejoin:round;stroke-miterlimit:4;stroke-dasharray:none;stroke-opacity:1"
           d="m 3847.81,1011.09 h -35" /><path
           id="path210"
           style="fill:none;stroke:#000000;stroke-width:8;stroke-linecap:butt;stroke-linejoin:round;stroke-miterlimit:4;stroke-dasharray:none;stroke-opacity:1"
           d="m 3847.81,1233.28 h -35" /><path
           id="path212"
           style="fill:none;stroke:#000000;stroke-width:8;stroke-linecap:butt;stroke-linejoin:round;stroke-miterlimit:4;stroke-dasharray:none;stroke-opacity:1"
           d="m 3847.81,1455.47 h -35" /><path
           id="path214"
           style="fill:none;stroke:#000000;stroke-width:8;stroke-linecap:butt;stroke-linejoin:round;stroke-miterlimit:4;stroke-dasharray:none;stroke-opacity:1"
           d="m 3847.81,1677.66 h -35" /><path
           id="path216"
           style="fill:none;stroke:#000000;stroke-width:8;stroke-linecap:butt;stroke-linejoin:round;stroke-miterlimit:4;stroke-dasharray:none;stroke-opacity:1"
           d="m 3847.81,1899.84 h -35" /><path
           id="path218"
           style="fill:none;stroke:#000000;stroke-width:8;stroke-linecap:butt;stroke-linejoin:round;stroke-miterlimit:4;stroke-dasharray:none;stroke-opacity:1"
           d="m 3847.81,2122.03 h -35" /><path
           id="path220"
           style="fill:none;stroke:#000000;stroke-width:8;stroke-linecap:butt;stroke-linejoin:round;stroke-miterlimit:4;stroke-dasharray:none;stroke-opacity:1"
           d="m 3847.81,2344.22 h -35" /><g
           id="g222"><g
             clip-path="url(#clipPath228)"
             id="g224"><path
               id="path230"
               style="fill:none;stroke:#88ccac;stroke-width:15;stroke-linecap:square;stroke-linejoin:round;stroke-miterlimit:4;stroke-dasharray:none;stroke-opacity:1"
               d="m 3920.66,1379.49 28.56,-26.83 28.55,-13.48 28.6,1.25 28.55,-2.54 28.6,-6.72 28.55,3.44 28.55,9.57 28.6,-1.37 28.55,-11.72 28.6,-9.41 28.55,-8.36 28.56,-17.3 28.59,-27.15 28.55,-37.89 28.6,-55.82 28.55,-55.28 28.56,6.17 28.59,110.79 28.56,167.42 28.59,114.33 28.55,5.43 28.56,-48.36 28.59,-3.94 28.56,84.88 28.59,142.35 28.56,142.89 28.59,114.8 28.55,88.09 28.56,53.47 28.59,-7.3 28.56,-66.64 28.59,-82.35 28.56,-70 28.55,-74.18 28.59,-85.35 28.56,-67.73 28.59,-38.28 28.56,-34.07 28.55,-42.34 28.6,-36.8 28.55,-27.81 28.59,-24.61 28.56,-12.26 28.55,3.67 28.6,-0.24 28.55,-14.8 28.6,-13.13 28.55,0.63 28.56,8.12 28.59,11.25 28.55,13.83" /><path
               id="path232"
               style="fill:none;stroke:#45cc8d;stroke-width:15;stroke-linecap:square;stroke-linejoin:round;stroke-miterlimit:4;stroke-dasharray:none;stroke-opacity:1"
               d="m 3920.66,1415.66 28.56,-44.21 28.55,-28.99 28.6,-0.55 28.55,2.82 28.6,-10.9 28.55,-10.28 28.55,3.79 28.6,7.15 28.55,1.13 28.6,-3.24 28.55,-11.68 28.56,-25.54 28.59,-30.9 28.55,-30.16 28.6,-43.08 28.55,-58.75 28.56,-32.74 28.59,44.26 28.56,108.09 28.59,88.35 28.55,5.59 28.56,-35 28.59,33.91 28.56,156.01 28.59,224.1 28.56,209.42 28.59,167.19 28.55,133.86 28.56,85.74 28.59,3.48 28.56,-79.8 28.59,-118.48 28.56,-115.86 28.55,-113.44 28.59,-126.4 28.56,-125.2 28.59,-91.99 28.56,-56.41 28.55,-48.51 28.6,-52.39 28.55,-38.28 28.59,-8.55 28.56,15.23 28.55,22.31 28.6,15.43 28.55,7.11 28.6,1.13 28.55,6.64 28.56,0.86 28.59,11.87 28.55,7.11" /><path
               id="path234"
               style="fill:none;stroke:#00cd6c;stroke-width:15;stroke-linecap:square;stroke-linejoin:round;stroke-miterlimit:4;stroke-dasharray:none;stroke-opacity:1"
               d="m 3920.66,1411.72 28.56,-19.77 28.55,-17.5 28.6,-11.36 28.55,-2.62 28.6,-28.48 28.55,-34.88 28.55,-20.94 28.6,13.09 28.55,37.11 28.6,28.04 28.55,2.43 28.56,-9.77 28.59,-6.37 28.55,-1.05 28.6,2.62 28.55,-3.6 28.56,-41.56 28.59,-103.75 28.56,-129.1 28.59,-67.78 28.55,47.27 28.56,134.45 28.59,159.85 28.56,160 28.59,175.31 28.56,198.83 28.59,196.87 28.55,152.54 28.56,83.63 28.59,24.34 28.56,-14.69 28.59,-58.83 28.56,-121.56 28.55,-167.03 28.59,-161.56 28.56,-135.04 28.59,-131.68 28.56,-129.06 28.55,-78.56 28.6,-2.22 28.55,31.01 28.59,13.87 28.56,2.19 28.55,18 28.6,24.93 28.55,7.61 28.6,5.32 28.55,8.9 28.56,4.85 28.59,-10.75 28.55,-1.68" /></g></g><path
           id="path236"
           style="fill:none;stroke:#000000;stroke-width:8;stroke-linecap:square;stroke-linejoin:miter;stroke-miterlimit:4;stroke-dasharray:none;stroke-opacity:1"
           d="M 3847.81,923.59 V 2526.84" /><path
           id="path238"
           style="fill:none;stroke:#000000;stroke-width:8;stroke-linecap:square;stroke-linejoin:miter;stroke-miterlimit:4;stroke-dasharray:none;stroke-opacity:1"
           d="M 3847.81,1455.47 H 5450.59" /></g><path
         id="path268"
         style="fill:none;stroke:#000000;stroke-width:8;stroke-linecap:butt;stroke-linejoin:round;stroke-miterlimit:4;stroke-dasharray:none;stroke-opacity:1"
         d="m 600.469,427.191 v -35"
         transform="scale(0.1)" /><path
         id="path270"
         style="fill:#000000;fill-opacity:1;fill-rule:nonzero;stroke:none"
         d="m 552.73,347.582 c -5.07,0 -8.859,-2.5 -11.441,-7.5 -2.539,-4.961 -3.828,-12.5 -3.828,-22.5 0,-10 1.289,-17.5 3.828,-22.5 2.582,-5 6.371,-7.5 11.441,-7.5 5.122,0 8.95,2.5 11.532,7.5 2.539,5 3.828,12.5 3.828,22.5 0,10 -1.289,17.539 -3.828,22.5 -2.582,5 -6.41,7.5 -11.532,7.5 z m 0,7.809 c 8.211,0 14.418,-3.2 18.75,-9.692 4.301,-6.437 6.45,-15.82 6.45,-28.117 0,-12.273 -2.149,-21.641 -6.45,-28.133 -4.332,-6.437 -10.539,-9.679 -18.75,-9.679 -8.16,0 -14.41,3.242 -18.71,9.679 -4.29,6.492 -6.481,15.86 -6.481,28.133 0,12.297 2.191,21.68 6.481,28.117 4.3,6.492 10.55,9.692 18.71,9.692 z"
         transform="scale(0.1)" /><path
         id="path272"
         style="fill:#000000;fill-opacity:1;fill-rule:nonzero;stroke:none"
         d="m 595.27,281.168 h 10.3086 v 12.4219 H 595.27 Z"
         transform="scale(0.1)" /><path
         id="path274"
         style="fill:#000000;fill-opacity:1;fill-rule:nonzero;stroke:none"
         d="m 648.16,347.582 c -5.07,0 -8.898,-2.5 -11.441,-7.5 -2.578,-4.961 -3.828,-12.5 -3.828,-22.5 0,-10 1.25,-17.5 3.828,-22.5 2.543,-5 6.371,-7.5 11.441,-7.5 5.121,0 8.949,2.5 11.488,7.5 2.582,5 3.872,12.5 3.872,22.5 0,10 -1.29,17.539 -3.872,22.5 -2.539,5 -6.367,7.5 -11.488,7.5 z m 0,7.809 c 8.168,0 14.418,-3.2 18.719,-9.692 4.332,-6.437 6.48,-15.82 6.48,-28.117 0,-12.273 -2.148,-21.641 -6.48,-28.133 -4.301,-6.437 -10.551,-9.679 -18.719,-9.679 -8.16,0 -14.41,3.242 -18.711,9.679 -4.328,6.492 -6.48,15.86 -6.48,28.133 0,12.297 2.152,21.68 6.48,28.117 4.301,6.492 10.551,9.692 18.711,9.692 z"
         transform="scale(0.1)" /><path
         id="path276"
         style="fill:none;stroke:#000000;stroke-width:8;stroke-linecap:butt;stroke-linejoin:round;stroke-miterlimit:4;stroke-dasharray:none;stroke-opacity:1"
         d="m 969.141,427.191 v -35"
         transform="scale(0.1)" /><path
         id="path278"
         style="fill:#000000;fill-opacity:1;fill-rule:nonzero;stroke:none"
         d="m 921.41,347.582 c -5.082,0 -8.91,-2.5 -11.449,-7.5 -2.582,-4.961 -3.832,-12.5 -3.832,-22.5 0,-10 1.25,-17.5 3.832,-22.5 2.539,-5 6.367,-7.5 11.449,-7.5 5.11,0 8.942,2.5 11.481,7.5 2.578,5 3.871,12.5 3.871,22.5 0,10 -1.293,17.539 -3.871,22.5 -2.539,5 -6.371,7.5 -11.481,7.5 z m 0,7.809 c 8.16,0 14.41,-3.2 18.711,-9.692 4.328,-6.437 6.481,-15.82 6.481,-28.117 0,-12.273 -2.153,-21.641 -6.481,-28.133 -4.301,-6.437 -10.551,-9.679 -18.711,-9.679 -8.172,0 -14.422,3.242 -18.711,9.679 -4.34,6.492 -6.488,15.86 -6.488,28.133 0,12.297 2.148,21.68 6.488,28.117 4.289,6.492 10.539,9.692 18.711,9.692 z"
         transform="scale(0.1)" /><path
         id="path280"
         style="fill:#000000;fill-opacity:1;fill-rule:nonzero;stroke:none"
         d="m 963.91,281.168 h 10.3086 v 12.4219 H 963.91 Z"
         transform="scale(0.1)" /><path
         id="path282"
         style="fill:#000000;fill-opacity:1;fill-rule:nonzero;stroke:none"
         d="m 1004.22,289.488 h 34.41 v -8.316 h -46.29 v 8.316 c 3.75,3.871 8.83,9.063 15.32,15.594 6.44,6.52 10.5,10.738 12.18,12.648 3.17,3.52 5.36,6.532 6.61,8.989 1.25,2.461 1.87,4.883 1.87,7.261 0,3.872 -1.33,7.04 -4.06,9.461 -2.74,2.457 -6.25,3.668 -10.63,3.668 -3.08,0 -6.36,-0.55 -9.8,-1.597 -3.44,-1.102 -7.068,-2.703 -10.978,-4.891 v 9.969 c 3.949,1.601 7.658,2.769 11.098,3.59 3.47,0.82 6.64,1.211 9.49,1.211 7.58,0 13.59,-1.871 18.08,-5.661 4.5,-3.75 6.72,-8.789 6.72,-15.121 0,-3.007 -0.54,-5.859 -1.68,-8.519 -1.13,-2.692 -3.16,-5.86 -6.13,-9.488 -0.82,-0.942 -3.4,-3.672 -7.77,-8.204 -4.34,-4.488 -10.51,-10.816 -18.44,-18.91 z"
         transform="scale(0.1)" /><path
         id="path284"
         style="fill:none;stroke:#000000;stroke-width:8;stroke-linecap:butt;stroke-linejoin:round;stroke-miterlimit:4;stroke-dasharray:none;stroke-opacity:1"
         d="m 1337.77,427.191 v -35"
         transform="scale(0.1)" /><path
         id="path286"
         style="fill:#000000;fill-opacity:1;fill-rule:nonzero;stroke:none"
         d="m 1290.04,347.582 c -5.08,0 -8.87,-2.5 -11.45,-7.5 -2.54,-4.961 -3.82,-12.5 -3.82,-22.5 0,-10 1.28,-17.5 3.82,-22.5 2.58,-5 6.37,-7.5 11.45,-7.5 5.12,0 8.94,2.5 11.52,7.5 2.54,5 3.83,12.5 3.83,22.5 0,10 -1.29,17.539 -3.83,22.5 -2.58,5 -6.4,7.5 -11.52,7.5 z m 0,7.809 c 8.16,0 14.41,-3.2 18.75,-9.692 4.3,-6.437 6.44,-15.82 6.44,-28.117 0,-12.273 -2.14,-21.641 -6.44,-28.133 -4.34,-6.437 -10.59,-9.679 -18.75,-9.679 -8.16,0 -14.42,3.242 -18.71,9.679 -4.3,6.492 -6.49,15.86 -6.49,28.133 0,12.297 2.19,21.68 6.49,28.117 4.29,6.492 10.55,9.692 18.71,9.692 z"
         transform="scale(0.1)" /><g
         id="g4209"
         transform="scale(0.1)"><path
           id="path132"
           style="fill:none;stroke:#000000;stroke-width:8;stroke-linecap:butt;stroke-linejoin:round;stroke-miterlimit:4;stroke-dasharray:none;stroke-opacity:1"
           d="m 2346.29,1455.47 v -35" /><path
           id="path134"
           style="fill:none;stroke:#000000;stroke-width:8;stroke-linecap:butt;stroke-linejoin:round;stroke-miterlimit:4;stroke-dasharray:none;stroke-opacity:1"
           d="m 2714.92,1455.47 v -35" /><path
           id="path136"
           style="fill:none;stroke:#000000;stroke-width:8;stroke-linecap:butt;stroke-linejoin:round;stroke-miterlimit:4;stroke-dasharray:none;stroke-opacity:1"
           d="m 3083.59,1455.47 v -35" /><path
           id="path138"
           style="fill:none;stroke:#000000;stroke-width:8;stroke-linecap:butt;stroke-linejoin:round;stroke-miterlimit:4;stroke-dasharray:none;stroke-opacity:1"
           d="m 3452.23,1455.47 v -35" /><path
           id="path140"
           style="fill:none;stroke:#000000;stroke-width:8;stroke-linecap:butt;stroke-linejoin:round;stroke-miterlimit:4;stroke-dasharray:none;stroke-opacity:1"
           d="m 2101.99,1011.09 h -35" /><path
           id="path142"
           style="fill:none;stroke:#000000;stroke-width:8;stroke-linecap:butt;stroke-linejoin:round;stroke-miterlimit:4;stroke-dasharray:none;stroke-opacity:1"
           d="m 2101.99,1233.28 h -35" /><path
           id="path144"
           style="fill:none;stroke:#000000;stroke-width:8;stroke-linecap:butt;stroke-linejoin:round;stroke-miterlimit:4;stroke-dasharray:none;stroke-opacity:1"
           d="m 2101.99,1455.47 h -35" /><path
           id="path146"
           style="fill:none;stroke:#000000;stroke-width:8;stroke-linecap:butt;stroke-linejoin:round;stroke-miterlimit:4;stroke-dasharray:none;stroke-opacity:1"
           d="m 2101.99,1677.66 h -35" /><path
           id="path148"
           style="fill:none;stroke:#000000;stroke-width:8;stroke-linecap:butt;stroke-linejoin:round;stroke-miterlimit:4;stroke-dasharray:none;stroke-opacity:1"
           d="m 2101.99,1899.84 h -35" /><path
           id="path150"
           style="fill:none;stroke:#000000;stroke-width:8;stroke-linecap:butt;stroke-linejoin:round;stroke-miterlimit:4;stroke-dasharray:none;stroke-opacity:1"
           d="m 2101.99,2122.03 h -35" /><path
           id="path152"
           style="fill:none;stroke:#000000;stroke-width:8;stroke-linecap:butt;stroke-linejoin:round;stroke-miterlimit:4;stroke-dasharray:none;stroke-opacity:1"
           d="m 2101.99,2344.22 h -35" /><g
           id="g154"><g
             clip-path="url(#clipPath160)"
             id="g156"><path
               id="path162"
               style="fill:none;stroke:#ffb5c8;stroke-width:15;stroke-linecap:square;stroke-linejoin:round;stroke-miterlimit:4;stroke-dasharray:none;stroke-opacity:1"
               d="m 2174.84,1410.2 28.6,-19.07 28.55,-14.1 28.56,19.26 28.59,34.22 28.56,1.64 28.59,-28.79 28.55,-23.75 28.56,-9.96 28.59,-0.16 28.56,12.23 28.59,2.03 28.56,-37.66 28.55,-50.31 28.59,-15.04 28.56,0.47 28.59,-24.84 28.56,-2.07 28.55,105.86 28.6,190.66 28.55,156.33 28.59,49.49 28.56,-33.4 28.55,-50.27 28.6,6.37 28.55,110.66 28.6,174.84 28.55,136.06 28.59,50.55 28.56,2.53 28.55,-21.13 28.6,-66.29 28.55,-106.6 28.6,-103.12 28.55,-81.45 28.55,-75.66 28.6,-75.86 28.55,-69.14 28.6,-58.13 28.55,-34.26 28.56,-0.74 28.59,6.8 28.55,-18.75 28.6,-29.73 28.55,-7.07 28.56,8.56 28.59,-2.62 28.56,-4.57 28.59,16.64 28.55,23.2 28.56,-1.48 28.59,-20.35" /><path
               id="path164"
               style="fill:none;stroke:#ff6890;stroke-width:15;stroke-linecap:square;stroke-linejoin:round;stroke-miterlimit:4;stroke-dasharray:none;stroke-opacity:1"
               d="m 2174.84,1437.81 28.6,-24.37 28.55,-20.04 28.56,7.15 28.59,4.84 28.56,-11.21 28.59,-2.85 28.55,-8.21 28.56,-20.42 28.59,-7.27 28.56,13.71 28.59,-9.49 28.56,-47.54 28.55,-27.15 28.59,19.53 28.56,5.24 28.59,-34.07 28.56,7 28.55,99.45 28.6,118.48 28.55,50.93 28.59,-3.82 28.56,1.32 28.55,40.71 28.6,99.22 28.55,163.9 28.6,193.13 28.55,169.68 28.59,122.89 28.56,66.65 28.55,-11.1 28.6,-95 28.55,-149.88 28.6,-167.58 28.55,-159.34 28.55,-135.82 28.6,-116.64 28.55,-111.48 28.6,-93.67 28.55,-40.55 28.56,15.78 28.59,29.14 28.55,0.82 28.6,-23.2 28.55,-7.66 28.56,31.64 28.59,47.43 28.56,27.93 28.59,24.1 28.55,-3.4 28.56,-2.38 28.59,8.9" /><path
               id="path166"
               style="fill:none;stroke:#ff1f5b;stroke-width:15;stroke-linecap:square;stroke-linejoin:round;stroke-miterlimit:4;stroke-dasharray:none;stroke-opacity:1"
               d="m 2174.84,1403.98 28.6,21.64 28.55,9.81 28.56,-24.84 28.59,-48.83 28.56,-66.14 28.59,46.61 28.55,70.97 28.56,-9.57 28.59,-72.3 28.56,-40.98 28.59,19.69 28.56,40.58 28.55,39.54 28.59,43.63 28.56,40.78 28.59,27.7 28.56,17.93 28.55,-4.97 28.6,-71.64 28.55,-149.33 28.59,-132.46 28.56,31.79 28.55,229.18 28.6,280.9 28.55,171.25 28.6,69.38 28.55,96.91 28.59,179.1 28.56,173.52 28.55,60.12 28.6,-58.09 28.55,-104.81 28.6,-114.57 28.55,-153.51 28.55,-206.37 28.6,-204.41 28.55,-141.88 28.6,-82.97 28.55,-64.84 28.56,-59.8 28.59,-28.87 28.55,27.3 28.6,72.74 28.55,72.5 28.56,35.19 28.59,12.58 28.56,3.87 28.59,-11.13 28.55,20.19 28.56,15.39 28.59,-22.81" /></g></g><path
           id="path168"
           style="fill:none;stroke:#000000;stroke-width:8;stroke-linecap:square;stroke-linejoin:miter;stroke-miterlimit:4;stroke-dasharray:none;stroke-opacity:1"
           d="M 2101.99,923.59 V 2526.84" /><path
           id="path170"
           style="fill:none;stroke:#000000;stroke-width:8;stroke-linecap:square;stroke-linejoin:miter;stroke-miterlimit:4;stroke-dasharray:none;stroke-opacity:1"
           d="M 2101.99,1455.47 H 3704.8" /></g><path
         id="path288"
         style="fill:#000000;fill-opacity:1;fill-rule:nonzero;stroke:none"
         d="m 1332.58,281.168 h 10.3125 v 12.4219 H 1332.58 Z"
         transform="scale(0.1)" /><path
         id="path290"
         style="fill:#000000;fill-opacity:1;fill-rule:nonzero;stroke:none"
         d="m 1391.48,345.512 -24.92,-38.953 h 24.92 z m -2.61,8.59 h 12.42 v -47.543 h 10.39 v -8.2 h -10.39 v -17.187 h -9.81 v 17.187 h -32.93 v 9.532 z"
         transform="scale(0.1)" /><path
         id="path292"
         style="fill:none;stroke:#000000;stroke-width:8;stroke-linecap:butt;stroke-linejoin:round;stroke-miterlimit:4;stroke-dasharray:none;stroke-opacity:1"
         d="m 1706.45,427.191 v -35"
         transform="scale(0.1)" /><path
         id="path294"
         style="fill:#000000;fill-opacity:1;fill-rule:nonzero;stroke:none"
         d="m 1658.71,347.582 c -5.08,0 -8.91,-2.5 -11.48,-7.5 -2.54,-4.961 -3.83,-12.5 -3.83,-22.5 0,-10 1.29,-17.5 3.83,-22.5 2.57,-5 6.4,-7.5 11.48,-7.5 5.12,0 8.95,2.5 11.49,7.5 2.57,5 3.82,12.5 3.82,22.5 0,10 -1.25,17.539 -3.82,22.5 -2.54,5 -6.37,7.5 -11.49,7.5 z m 0,7.809 c 8.17,0 14.41,-3.2 18.71,-9.692 4.34,-6.437 6.49,-15.82 6.49,-28.117 0,-12.273 -2.15,-21.641 -6.49,-28.133 -4.3,-6.437 -10.54,-9.679 -18.71,-9.679 -8.16,0 -14.41,3.242 -18.75,9.679 -4.3,6.492 -6.44,15.86 -6.44,28.133 0,12.297 2.14,21.68 6.44,28.117 4.34,6.492 10.59,9.692 18.75,9.692 z"
         transform="scale(0.1)" /><path
         id="path296"
         style="fill:#000000;fill-opacity:1;fill-rule:nonzero;stroke:none"
         d="m 1701.21,281.168 h 10.3086 v 12.4219 H 1701.21 Z"
         transform="scale(0.1)" /><path
         id="path298"
         style="fill:#000000;fill-opacity:1;fill-rule:nonzero;stroke:none"
         d="m 1755.35,321.559 c -4.45,0 -7.97,-1.52 -10.55,-4.528 -2.57,-3.051 -3.86,-7.191 -3.86,-12.461 0,-5.23 1.29,-9.371 3.86,-12.422 2.58,-3.046 6.1,-4.566 10.55,-4.566 4.42,0 7.93,1.52 10.51,4.566 2.58,3.051 3.87,7.192 3.87,12.422 0,5.27 -1.29,9.41 -3.87,12.461 -2.58,3.008 -6.09,4.528 -10.51,4.528 z m 19.57,30.941 v -8.98 c -2.5,1.171 -5,2.031 -7.5,2.652 -2.54,0.629 -5.04,0.937 -7.5,0.937 -6.52,0 -11.48,-2.187 -14.92,-6.597 -3.44,-4.383 -5.39,-11.024 -5.9,-19.922 1.95,2.851 4.34,5 7.23,6.519 2.93,1.52 6.09,2.27 9.57,2.27 7.34,0 13.12,-2.231 17.38,-6.68 4.26,-4.418 6.37,-10.469 6.37,-18.129 0,-7.461 -2.23,-13.48 -6.64,-18.011 -4.42,-4.528 -10.31,-6.789 -17.66,-6.789 -8.44,0 -14.88,3.242 -19.37,9.679 -4.46,6.492 -6.68,15.86 -6.68,28.133 0,11.52 2.73,20.699 8.2,27.539 5.47,6.867 12.81,10.27 22.03,10.27 2.46,0 4.96,-0.231 7.5,-0.7 2.5,-0.511 5.16,-1.25 7.89,-2.191 z"
         transform="scale(0.1)" /><path
         id="path300"
         style="fill:none;stroke:#a3a3a3;stroke-width:10;stroke-linecap:butt;stroke-linejoin:miter;stroke-miterlimit:4;stroke-dasharray:none;stroke-opacity:1"
         d="m 914.77,50.4297 h 126.01"
         transform="scale(0.1)" /><path
         id="path302"
         style="fill:none;stroke:#a3a3a3;stroke-width:1;stroke-linecap:butt;stroke-linejoin:miter;stroke-miterlimit:4;stroke-dasharray:none;stroke-opacity:1"
         d="m 97.1879,13.95243 h 6.8901" /><path
         id="path304"
         style="fill:#9c64e0;fill-opacity:1;stroke:#9c64e0;stroke-width:20;stroke-linecap:butt;stroke-linejoin:miter;stroke-miterlimit:4;stroke-dasharray:none;stroke-opacity:1"
         d="m 1040.78,45.4297 0.08,88.3593"
         transform="scale(0.1)" /><path
         id="path306"
         style="fill:#9c64e0;fill-opacity:1;fill-rule:evenodd;stroke:#9c64e0;stroke-opacity:1"
         d="m 1040.86,143.789 29.96,-30.039 v -20 l -29.96,30.039 -30.04,-29.957 v 20 z"
         transform="scale(0.1)" /><path
         id="path308"
         style="fill:none;stroke:#000000;stroke-width:8;stroke-linecap:butt;stroke-linejoin:round;stroke-miterlimit:4;stroke-dasharray:none;stroke-opacity:1"
         d="m 356.211,189.879 h -35"
         transform="scale(0.1)" /><path
         id="path310"
         style="fill:#000000;fill-opacity:1;fill-rule:nonzero;stroke:none"
         d="m 149.379,179.102 h 62.582 v 8.27734 h -62.582 z"
         transform="scale(0.1)" /><path
         id="path312"
         style="fill:#000000;fill-opacity:1;fill-rule:nonzero;stroke:none"
         d="m 241.762,160.199 h 34.41 v -8.32 h -46.293 v 8.32 c 3.75,3.86 8.871,9.063 15.32,15.582 6.481,6.52 10.539,10.739 12.18,12.617 3.172,3.551 5.351,6.563 6.601,9.024 1.25,2.457 1.918,4.879 1.918,7.226 0,3.903 -1.367,7.032 -4.097,9.493 -2.699,2.418 -6.25,3.668 -10.629,3.668 -3.082,0 -6.371,-0.539 -9.801,-1.598 -3.402,-1.09 -7.07,-2.731 -10.98,-4.922 v 10 c 3.949,1.563 7.66,2.77 11.129,3.59 3.441,0.82 6.601,1.211 9.46,1.211 7.571,0 13.59,-1.871 18.079,-5.66 4.492,-3.789 6.722,-8.828 6.722,-15.121 0,-3.008 -0.551,-5.86 -1.679,-8.547 -1.133,-2.66 -3.161,-5.821 -6.133,-9.461 -0.821,-0.969 -3.399,-3.711 -7.77,-8.199 -4.34,-4.532 -10.508,-10.821 -18.437,-18.903 z"
         transform="scale(0.1)" /><path
         id="path314"
         style="fill:none;stroke:#000000;stroke-width:8;stroke-linecap:butt;stroke-linejoin:round;stroke-miterlimit:4;stroke-dasharray:none;stroke-opacity:1"
         d="m 356.211,427.191 h -35"
         transform="scale(0.1)" /><path
         id="path316"
         style="fill:#000000;fill-opacity:1;fill-rule:nonzero;stroke:none"
         d="m 254.379,455.59 c -5.078,0 -8.91,-2.5 -11.488,-7.5 -2.539,-5 -3.832,-12.5 -3.832,-22.539 0,-9.961 1.293,-17.461 3.832,-22.461 2.578,-5 6.41,-7.5 11.488,-7.5 5.109,0 8.941,2.5 11.48,7.5 2.582,5 3.832,12.5 3.832,22.461 0,10.039 -1.25,17.539 -3.832,22.539 -2.539,5 -6.371,7.5 -11.48,7.5 z m 0,7.808 c 8.16,0 14.41,-3.238 18.711,-9.687 4.332,-6.481 6.48,-15.859 6.48,-28.16 0,-12.27 -2.148,-21.641 -6.48,-28.09 -4.301,-6.481 -10.551,-9.691 -18.711,-9.691 -8.168,0 -14.418,3.21 -18.758,9.691 -4.293,6.449 -6.441,15.82 -6.441,28.09 0,12.301 2.148,21.679 6.441,28.16 4.34,6.449 10.59,9.687 18.758,9.687 z"
         transform="scale(0.1)" /><path
         id="path318"
         style="fill:none;stroke:#000000;stroke-width:8;stroke-linecap:butt;stroke-linejoin:round;stroke-miterlimit:4;stroke-dasharray:none;stroke-opacity:1"
         d="m 356.211,664.488 h -35"
         transform="scale(0.1)" /><path
         id="path320"
         style="fill:#000000;fill-opacity:1;fill-rule:nonzero;stroke:none"
         d="m 241.762,634.77 h 34.41 v -8.29 h -46.25 v 8.29 c 3.707,3.902 8.828,9.101 15.277,15.621 6.481,6.519 10.539,10.738 12.18,12.621 3.172,3.547 5.351,6.558 6.601,9.019 1.29,2.457 1.918,4.848 1.918,7.231 0,3.859 -1.367,7.027 -4.097,9.488 -2.699,2.422 -6.25,3.672 -10.629,3.672 -3.082,0 -6.332,-0.543 -9.762,-1.641 -3.441,-1.051 -7.109,-2.691 -11.019,-4.883 v 9.961 c 3.988,1.602 7.699,2.813 11.129,3.629 3.441,0.821 6.601,1.211 9.5,1.211 7.531,0 13.55,-1.867 18.039,-5.66 4.492,-3.789 6.722,-8.828 6.722,-15.117 0,-3.012 -0.551,-5.863 -1.679,-8.551 -1.09,-2.66 -3.161,-5.82 -6.133,-9.492 -0.778,-0.938 -3.399,-3.68 -7.739,-8.168 -4.371,-4.531 -10.5,-10.82 -18.468,-18.941 z"
         transform="scale(0.1)" /><g
         id="g348"
         transform="scale(0.1)"><g
           clip-path="url(#clipPath354)"
           id="g350"><path
             id="path356"
             style="fill:none;stroke:#94c7dd;stroke-width:15;stroke-linecap:square;stroke-linejoin:round;stroke-miterlimit:4;stroke-dasharray:none;stroke-opacity:1"
             d="m 429.059,444.059 28.562,-10.43 28.59,-16.207 28.559,8.277 28.55,14.731 28.59,-19.301 28.559,-37.418 28.59,-4.492 28.562,29.84 28.551,21.371 28.598,-0.821 28.55,-5.82 28.59,-16.25 28.559,-51.488 28.551,-84.332 28.601,-86.25 28.551,-65.981 28.598,-34.2888 28.55,20.7418 28.559,86.758 28.591,104.332 28.55,46.168 28.6,-16.988 28.55,-1.09 28.56,71.399 28.59,109.609 28.56,79.18 28.59,21.41 28.55,-18.239 28.6,-20.75 28.55,5.711 28.56,24.957 28.59,12.153 28.56,-9.653 28.59,-14.609 28.55,-19.488 28.56,-35.629 28.59,-32.07 28.56,1.367 28.59,19.261 28.56,-6.492 28.55,-39.058 28.59,-39.692 28.56,-22.609 28.59,-18.047 28.56,-21.953 28.55,-11.41 28.6,10.781 28.55,18.281 28.59,3.278 28.56,-11.52 28.55,-5.82" /><path
             id="path358"
             style="fill:none;stroke:#4bb1dd;stroke-width:15;stroke-linecap:square;stroke-linejoin:round;stroke-miterlimit:4;stroke-dasharray:none;stroke-opacity:1"
             d="m 429.059,419.648 28.562,-3.128 28.59,0.859 28.559,14.57 28.55,5.16 28.59,-25.937 28.559,-27.5 28.59,-2.891 28.562,26.367 28.551,42.973 28.598,34.719 28.55,-5.781 28.59,-61.008 28.559,-96.571 28.551,-96.992 28.601,-78.668 28.551,-60.5505 28.598,-34.8398 28.55,19.8789 28.559,86.9614 28.591,105.269 28.55,54.102 28.6,4.879 28.55,26.332 28.56,79.609 28.59,87.66 28.56,55.859 28.59,34.801 28.55,24.84 28.6,5.117 28.55,-7.297 28.56,-2.5 28.59,-6.961 28.56,-23.859 28.59,-24.531 28.55,-13.602 28.56,-16.129 28.59,-18.828 28.56,-6.09 28.59,-6.332 28.56,-30.199 28.55,-38 28.59,-22 28.56,-21.48 28.59,-31.02 28.56,-9.14 28.55,24.179 28.6,28.992 28.55,-3.211 28.59,17.93 28.56,-26.441 28.55,-28.321" /><path
             id="path360"
             style="fill:none;stroke:#009ade;stroke-width:15;stroke-linecap:square;stroke-linejoin:round;stroke-miterlimit:4;stroke-dasharray:none;stroke-opacity:1"
             d="m 429.059,456.129 28.562,-18.039 28.59,-20.238 28.559,-36.993 28.55,-1.879 28.59,20.282 28.559,40.347 28.59,2.852 28.562,-35.512 28.551,-39.097 28.598,-0.43 28.55,38.238 28.59,23.871 28.559,-42.031 28.551,-97.418 28.601,-88.953 28.551,-35.348 28.598,-1.761 28.55,-9.918 28.559,-15.313 28.591,12.07 28.55,42.379 28.6,53.992 28.55,69.489 28.56,87.34 28.59,68.011 28.56,22.27 28.59,15.859 28.55,59.723 28.6,86.289 28.55,51.988 28.56,-13.078 28.59,-56.25 28.56,-55.82 28.59,-28.36 28.55,-5 28.56,-1.14 28.59,-11.832 28.56,-25.899 28.59,-26.761 28.56,-8.668 28.55,-1.481 28.59,-28.172 28.56,-48.398 28.59,-20.192 28.56,16.872 28.55,9.101 28.6,-13.082 28.55,20.859 28.59,5.661 28.56,7.312 28.55,-14.961" /></g></g><path
         id="path362"
         style="fill:none;stroke:#000000;stroke-width:8;stroke-linecap:square;stroke-linejoin:miter;stroke-miterlimit:4;stroke-dasharray:none;stroke-opacity:1"
         d="M 356.211,13.9805 V 815.621"
         transform="scale(0.1)" /><path
         id="path364"
         style="fill:none;stroke:#000000;stroke-width:8;stroke-linecap:square;stroke-linejoin:miter;stroke-miterlimit:4;stroke-dasharray:none;stroke-opacity:1"
         d="M 356.211,427.191 H 1958.98"
         transform="scale(0.1)" /><path
         id="path366"
         style="fill:none;stroke:#000000;stroke-width:8;stroke-linecap:butt;stroke-linejoin:round;stroke-miterlimit:4;stroke-dasharray:none;stroke-opacity:1"
         d="m 2346.29,427.191 v -35"
         transform="scale(0.1)" /><path
         id="path368"
         style="fill:#000000;fill-opacity:1;fill-rule:nonzero;stroke:none"
         d="m 2298.55,347.582 c -5.07,0 -8.9,-2.5 -11.48,-7.5 -2.54,-4.961 -3.83,-12.5 -3.83,-22.5 0,-10 1.29,-17.5 3.83,-22.5 2.58,-5 6.41,-7.5 11.48,-7.5 5.12,0 8.95,2.5 11.49,7.5 2.58,5 3.83,12.5 3.83,22.5 0,10 -1.25,17.539 -3.83,22.5 -2.54,5 -6.37,7.5 -11.49,7.5 z m 0,7.809 c 8.17,0 14.42,-3.2 18.72,-9.692 4.33,-6.437 6.48,-15.82 6.48,-28.117 0,-12.273 -2.15,-21.641 -6.48,-28.133 -4.3,-6.437 -10.55,-9.679 -18.72,-9.679 -8.16,0 -14.41,3.242 -18.75,9.679 -4.29,6.492 -6.44,15.86 -6.44,28.133 0,12.297 2.15,21.68 6.44,28.117 4.34,6.492 10.59,9.692 18.75,9.692 z"
         transform="scale(0.1)" /><path
         id="path370"
         style="fill:#000000;fill-opacity:1;fill-rule:nonzero;stroke:none"
         d="m 2341.05,281.168 h 10.3086 v 12.4219 H 2341.05 Z"
         transform="scale(0.1)" /><path
         id="path372"
         style="fill:#000000;fill-opacity:1;fill-rule:nonzero;stroke:none"
         d="m 2393.95,347.582 c -5.08,0 -8.87,-2.5 -11.45,-7.5 -2.54,-4.961 -3.83,-12.5 -3.83,-22.5 0,-10 1.29,-17.5 3.83,-22.5 2.58,-5 6.37,-7.5 11.45,-7.5 5.11,0 8.94,2.5 11.52,7.5 2.54,5 3.83,12.5 3.83,22.5 0,10 -1.29,17.539 -3.83,22.5 -2.58,5 -6.41,7.5 -11.52,7.5 z m 0,7.809 c 8.2,0 14.41,-3.2 18.75,-9.692 4.29,-6.437 6.44,-15.82 6.44,-28.117 0,-12.273 -2.15,-21.641 -6.44,-28.133 -4.34,-6.437 -10.55,-9.679 -18.75,-9.679 -8.17,0 -14.42,3.242 -18.72,9.679 -4.29,6.492 -6.48,15.86 -6.48,28.133 0,12.297 2.19,21.68 6.48,28.117 4.3,6.492 10.55,9.692 18.72,9.692 z"
         transform="scale(0.1)" /><path
         id="path374"
         style="fill:none;stroke:#000000;stroke-width:8;stroke-linecap:butt;stroke-linejoin:round;stroke-miterlimit:4;stroke-dasharray:none;stroke-opacity:1"
         d="m 2714.92,427.191 v -35"
         transform="scale(0.1)" /><path
         id="path376"
         style="fill:#000000;fill-opacity:1;fill-rule:nonzero;stroke:none"
         d="m 2667.19,347.582 c -5.08,0 -8.87,-2.5 -11.45,-7.5 -2.54,-4.961 -3.83,-12.5 -3.83,-22.5 0,-10 1.29,-17.5 3.83,-22.5 2.58,-5 6.37,-7.5 11.45,-7.5 5.11,0 8.94,2.5 11.52,7.5 2.54,5 3.83,12.5 3.83,22.5 0,10 -1.29,17.539 -3.83,22.5 -2.58,5 -6.41,7.5 -11.52,7.5 z m 0,7.809 c 8.16,0 14.41,-3.2 18.75,-9.692 4.29,-6.437 6.44,-15.82 6.44,-28.117 0,-12.273 -2.15,-21.641 -6.44,-28.133 -4.34,-6.437 -10.59,-9.679 -18.75,-9.679 -8.17,0 -14.42,3.242 -18.71,9.679 -4.3,6.492 -6.49,15.86 -6.49,28.133 0,12.297 2.19,21.68 6.49,28.117 4.29,6.492 10.54,9.692 18.71,9.692 z"
         transform="scale(0.1)" /><path
         id="path378"
         style="fill:#000000;fill-opacity:1;fill-rule:nonzero;stroke:none"
         d="m 2709.73,281.168 h 10.3086 v 12.4219 H 2709.73 Z"
         transform="scale(0.1)" /><path
         id="path380"
         style="fill:#000000;fill-opacity:1;fill-rule:nonzero;stroke:none"
         d="m 2750,289.488 h 34.41 v -8.316 h -46.25 v 8.316 c 3.72,3.871 8.83,9.063 15.28,15.594 6.48,6.52 10.54,10.738 12.18,12.648 3.17,3.52 5.36,6.532 6.61,8.989 1.29,2.461 1.91,4.883 1.91,7.261 0,3.872 -1.37,7.04 -4.1,9.461 -2.7,2.457 -6.25,3.668 -10.63,3.668 -3.08,0 -6.32,-0.55 -9.76,-1.597 -3.44,-1.102 -7.11,-2.703 -11.02,-4.891 v 9.969 c 3.99,1.601 7.7,2.769 11.14,3.59 3.43,0.82 6.6,1.211 9.49,1.211 7.54,0 13.55,-1.871 18.04,-5.661 4.5,-3.75 6.72,-8.789 6.72,-15.121 0,-3.007 -0.54,-5.859 -1.68,-8.519 -1.09,-2.692 -3.16,-5.86 -6.13,-9.488 -0.78,-0.942 -3.4,-3.672 -7.73,-8.204 -4.38,-4.488 -10.51,-10.816 -18.48,-18.91 z"
         transform="scale(0.1)" /><path
         id="path382"
         style="fill:none;stroke:#000000;stroke-width:8;stroke-linecap:butt;stroke-linejoin:round;stroke-miterlimit:4;stroke-dasharray:none;stroke-opacity:1"
         d="m 3083.59,427.191 v -35"
         transform="scale(0.1)" /><path
         id="path384"
         style="fill:#000000;fill-opacity:1;fill-rule:nonzero;stroke:none"
         d="m 3035.86,347.582 c -5.08,0 -8.91,-2.5 -11.48,-7.5 -2.54,-4.961 -3.83,-12.5 -3.83,-22.5 0,-10 1.29,-17.5 3.83,-22.5 2.57,-5 6.4,-7.5 11.48,-7.5 5.08,0 8.94,2.5 11.48,7.5 2.58,5 3.83,12.5 3.83,22.5 0,10 -1.25,17.539 -3.83,22.5 -2.54,5 -6.4,7.5 -11.48,7.5 z m 0,7.809 c 8.16,0 14.41,-3.2 18.71,-9.692 4.34,-6.437 6.48,-15.82 6.48,-28.117 0,-12.273 -2.14,-21.641 -6.48,-28.133 -4.3,-6.437 -10.55,-9.679 -18.71,-9.679 -8.2,0 -14.41,3.242 -18.75,9.679 -4.3,6.492 -6.45,15.86 -6.45,28.133 0,12.297 2.15,21.68 6.45,28.117 4.34,6.492 10.55,9.692 18.75,9.692 z"
         transform="scale(0.1)" /><path
         id="path386"
         style="fill:#000000;fill-opacity:1;fill-rule:nonzero;stroke:none"
         d="m 3078.36,281.168 h 10.3086 v 12.4219 H 3078.36 Z"
         transform="scale(0.1)" /><path
         id="path388"
         style="fill:#000000;fill-opacity:1;fill-rule:nonzero;stroke:none"
         d="m 3137.27,345.512 -24.93,-38.953 h 24.93 z m -2.58,8.59 h 12.38 v -47.543 h 10.43 v -8.2 h -10.43 v -17.187 h -9.8 v 17.187 h -32.89 v 9.532 z"
         transform="scale(0.1)" /><path
         id="path390"
         style="fill:none;stroke:#000000;stroke-width:8;stroke-linecap:butt;stroke-linejoin:round;stroke-miterlimit:4;stroke-dasharray:none;stroke-opacity:1"
         d="m 3452.23,427.191 v -35"
         transform="scale(0.1)" /><path
         id="path392"
         style="fill:#000000;fill-opacity:1;fill-rule:nonzero;stroke:none"
         d="m 3404.49,347.582 c -5.08,0 -8.9,-2.5 -11.44,-7.5 -2.58,-4.961 -3.83,-12.5 -3.83,-22.5 0,-10 1.25,-17.5 3.83,-22.5 2.54,-5 6.36,-7.5 11.44,-7.5 5.12,0 8.95,2.5 11.49,7.5 2.57,5 3.86,12.5 3.86,22.5 0,10 -1.29,17.539 -3.86,22.5 -2.54,5 -6.37,7.5 -11.49,7.5 z m 0,7.809 c 8.17,0 14.42,-3.2 18.75,-9.692 4.3,-6.437 6.45,-15.82 6.45,-28.117 0,-12.273 -2.15,-21.641 -6.45,-28.133 -4.33,-6.437 -10.58,-9.679 -18.75,-9.679 -8.16,0 -14.41,3.242 -18.71,9.679 -4.33,6.492 -6.48,15.86 -6.48,28.133 0,12.297 2.15,21.68 6.48,28.117 4.3,6.492 10.55,9.692 18.71,9.692 z"
         transform="scale(0.1)" /><path
         id="path394"
         style="fill:#000000;fill-opacity:1;fill-rule:nonzero;stroke:none"
         d="m 3447.03,281.168 h 10.3086 v 12.4219 H 3447.03 Z"
         transform="scale(0.1)" /><path
         id="path396"
         style="fill:#000000;fill-opacity:1;fill-rule:nonzero;stroke:none"
         d="m 3501.13,321.559 c -4.41,0 -7.93,-1.52 -10.54,-4.528 -2.58,-3.051 -3.87,-7.191 -3.87,-12.461 0,-5.23 1.29,-9.371 3.87,-12.422 2.61,-3.046 6.13,-4.566 10.54,-4.566 4.42,0 7.93,1.52 10.51,4.566 2.58,3.051 3.87,7.192 3.87,12.422 0,5.27 -1.29,9.41 -3.87,12.461 -2.58,3.008 -6.09,4.528 -10.51,4.528 z m 19.57,30.941 v -8.98 c -2.46,1.171 -4.96,2.031 -7.5,2.652 -2.5,0.629 -5,0.937 -7.5,0.937 -6.48,0 -11.48,-2.187 -14.92,-6.597 -3.4,-4.383 -5.39,-11.024 -5.86,-19.922 1.92,2.851 4.34,5 7.23,6.519 2.89,1.52 6.09,2.27 9.57,2.27 7.3,0 13.08,-2.231 17.34,-6.68 4.26,-4.418 6.37,-10.469 6.37,-18.129 0,-7.461 -2.19,-13.48 -6.64,-18.011 -4.41,-4.528 -10.31,-6.789 -17.66,-6.789 -8.43,0 -14.88,3.242 -19.33,9.679 -4.46,6.492 -6.68,15.86 -6.68,28.133 0,11.52 2.73,20.699 8.2,27.539 5.47,6.867 12.81,10.27 21.99,10.27 2.5,0 5,-0.231 7.5,-0.7 2.54,-0.511 5.16,-1.25 7.89,-2.191 z"
         transform="scale(0.1)" /><path
         id="path398"
         style="fill:#000000;fill-opacity:1;fill-rule:nonzero;stroke:none"
         d="m 2699.8,217.301 h 61.68 v -8.321 h -25.86 v -64.57 h -9.92 v 64.57 h -25.9 z"
         transform="scale(0.1)" /><path
         id="path400"
         style="fill:#000000;fill-opacity:1;fill-rule:nonzero;stroke:none"
         d="m 2767.5,199.102 h 8.9805 V 144.4106 H 2767.5 Z m 0,21.289 h 8.9805 V 208.9808 H 2767.5 Z"
         transform="scale(0.1)" /><path
         id="path402"
         style="fill:#000000;fill-opacity:1;fill-rule:nonzero;stroke:none"
         d="m 2837.85,188.59 c 2.27,4.07 4.92,7.031 8.05,8.949 3.12,1.91 6.83,2.852 11.05,2.852 5.71,0 10.08,-1.993 13.17,-5.981 3.12,-3.98 4.65,-9.64 4.65,-16.988 V 144.41 h -9.03 v 32.699 c 0,5.27 -0.94,9.141 -2.81,11.68 -1.84,2.543 -4.65,3.793 -8.48,3.793 -4.65,0 -8.32,-1.531 -11.05,-4.613 -2.7,-3.09 -4.02,-7.309 -4.02,-12.66 V 144.41 h -9.03 v 32.699 c 0,5.27 -0.94,9.18 -2.81,11.723 -1.84,2.5 -4.69,3.75 -8.59,3.75 -4.57,0 -8.25,-1.531 -10.94,-4.652 -2.7,-3.09 -4.06,-7.309 -4.06,-12.621 V 144.41 h -9.03 v 54.692 h 9.03 v -8.512 c 2.07,3.359 4.53,5.82 7.38,7.422 2.89,1.597 6.29,2.379 10.19,2.379 3.99,0 7.39,-0.981 10.16,-3.012 2.77,-2.027 4.84,-4.957 6.17,-8.789 z"
         transform="scale(0.1)" /><path
         id="path404"
         style="fill:#000000;fill-opacity:1;fill-rule:nonzero;stroke:none"
         d="m 2939.45,173.98 v -4.371 h -41.29 c 0.39,-6.168 2.27,-10.898 5.59,-14.14 3.32,-3.239 7.97,-4.848 13.95,-4.848 3.43,0 6.79,0.399 10.03,1.258 3.21,0.851 6.45,2.101 9.65,3.82 v -8.508 c -3.24,-1.371 -6.56,-2.421 -9.92,-3.132 -3.4,-0.7 -6.84,-1.09 -10.31,-1.09 -8.71,0 -15.63,2.543 -20.74,7.621 -5.08,5.07 -7.62,11.949 -7.62,20.621 0,8.949 2.42,16.059 7.23,21.289 4.84,5.27 11.36,7.891 19.57,7.891 7.34,0 13.16,-2.34 17.46,-7.11 4.29,-4.73 6.4,-11.133 6.4,-19.301 z m -8.98,2.661 c -0.04,4.918 -1.41,8.828 -4.1,11.757 -2.7,2.934 -6.25,4.411 -10.67,4.411 -5.04,0 -9.02,-1.438 -12.03,-4.258 -3.05,-2.852 -4.76,-6.832 -5.23,-11.992 z"
         transform="scale(0.1)" /><path
         id="path406"
         style="fill:#000000;fill-opacity:1;fill-rule:nonzero;stroke:none"
         d="m 3007.58,220.27 c -4.38,-7.461 -7.58,-14.879 -9.73,-22.219 -2.11,-7.313 -3.16,-14.731 -3.16,-22.27 0,-7.5 1.05,-14.922 3.2,-22.301 2.15,-7.39 5.35,-14.808 9.69,-22.269 h -7.81 c -4.89,7.66 -8.52,15.199 -10.94,22.578 -2.46,7.383 -3.67,14.731 -3.67,21.992 0,7.27 1.21,14.571 3.63,21.949 2.42,7.352 6.05,14.891 10.98,22.54 z"
         transform="scale(0.1)" /><path
         id="path408"
         style="fill:#000000;fill-opacity:1;fill-rule:nonzero;stroke:none"
         d="m 3059.88,197.5 v -8.52 c -2.54,1.29 -5.19,2.27 -7.93,2.93 -2.73,0.672 -5.54,0.981 -8.47,0.981 -4.46,0 -7.82,-0.661 -10.04,-2.032 -2.23,-1.371 -3.36,-3.437 -3.36,-6.168 0,-2.07 0.82,-3.711 2.38,-4.921 1.6,-1.18 4.81,-2.309 9.65,-3.36 l 3.09,-0.711 c 6.36,-1.359 10.89,-3.277 13.59,-5.777 2.66,-2.5 4.02,-5.973 4.02,-10.434 0,-5.078 -2.03,-9.097 -6.05,-12.066 -3.99,-2.973 -9.53,-4.453 -16.56,-4.453 -2.93,0 -5.98,0.312 -9.15,0.863 -3.2,0.578 -6.52,1.438 -10.03,2.578 v 9.289 c 3.32,-1.75 6.6,-3.039 9.8,-3.898 3.2,-0.86 6.41,-1.289 9.57,-1.289 4.26,0 7.5,0.738 9.77,2.187 2.26,1.442 3.39,3.473 3.39,6.133 0,2.418 -0.82,4.289 -2.46,5.578 -1.64,1.328 -5.23,2.578 -10.82,3.789 l -3.12,0.711 c -5.55,1.172 -9.57,2.969 -12.03,5.391 -2.5,2.461 -3.71,5.781 -3.71,10 0,5.148 1.83,9.097 5.47,11.91 3.63,2.809 8.82,4.18 15.5,4.18 3.32,0 6.45,-0.231 9.38,-0.7 2.93,-0.511 5.62,-1.211 8.12,-2.191 z"
         transform="scale(0.1)" /><path
         id="path410"
         style="fill:#000000;fill-opacity:1;fill-rule:nonzero;stroke:none"
         d="m 3075.7,220.27 h 7.82 c 4.88,-7.649 8.51,-15.188 10.93,-22.54 2.46,-7.378 3.67,-14.679 3.67,-21.949 0,-7.261 -1.21,-14.609 -3.67,-21.992 -2.42,-7.379 -6.05,-14.918 -10.93,-22.578 h -7.82 c 4.34,7.461 7.54,14.879 9.69,22.269 2.15,7.379 3.2,14.801 3.2,22.301 0,7.539 -1.05,14.957 -3.2,22.27 -2.15,7.34 -5.35,14.758 -9.69,22.219 z"
         transform="scale(0.1)" /><path
         id="path412"
         style="fill:none;stroke:#000000;stroke-width:8;stroke-linecap:butt;stroke-linejoin:round;stroke-miterlimit:4;stroke-dasharray:none;stroke-opacity:1"
         d="m 2101.99,189.879 h -35"
         transform="scale(0.1)" /><path
         id="path414"
         style="fill:none;stroke:#000000;stroke-width:8;stroke-linecap:butt;stroke-linejoin:round;stroke-miterlimit:4;stroke-dasharray:none;stroke-opacity:1"
         d="m 2101.99,427.191 h -35"
         transform="scale(0.1)" /><path
         id="path416"
         style="fill:none;stroke:#000000;stroke-width:8;stroke-linecap:butt;stroke-linejoin:round;stroke-miterlimit:4;stroke-dasharray:none;stroke-opacity:1"
         d="m 2101.99,664.488 h -35"
         transform="scale(0.1)" /><g
         id="g418"
         transform="scale(0.1)"><g
           clip-path="url(#clipPath424)"
           id="g420"><path
             id="path426"
             style="fill:none;stroke:#ffb5c8;stroke-width:15;stroke-linecap:square;stroke-linejoin:round;stroke-miterlimit:4;stroke-dasharray:none;stroke-opacity:1"
             d="m 2174.84,353.238 28.6,19.223 28.55,-3.981 28.56,-2.539 28.59,18.399 28.56,14.019 28.59,-19.339 28.55,-27.969 28.56,3.359 28.59,13.91 28.56,-21.871 28.59,-34.5 28.56,18.172 28.55,66.988 28.59,43.403 28.56,-20.043 28.59,-58.75 28.56,-49.297 28.55,6.598 28.6,75.468 28.55,85.352 28.59,20.359 28.56,-30.82 28.55,-0.668 28.6,57.461 28.55,66.449 28.6,34.141 28.55,7.218 28.59,0.75 28.56,7.692 28.55,15.777 28.6,5.512 28.55,-25.781 28.6,-48.282 28.55,-35.777 28.55,-2.5 28.6,10.578 28.55,-17.109 28.6,-51.32 28.55,-38.989 28.56,10.391 28.59,27.418 28.55,-7.18 28.6,-31.68 28.55,-15.39 28.56,0.23 28.59,-5.66 28.56,1.399 28.59,25.781 28.55,28.281 28.56,4.891 28.59,-12.703" /><path
             id="path428"
             style="fill:none;stroke:#ff6890;stroke-width:15;stroke-linecap:square;stroke-linejoin:round;stroke-miterlimit:4;stroke-dasharray:none;stroke-opacity:1"
             d="m 2174.84,422.93 28.6,-38.95 28.55,-21.75 28.56,-9.031 28.59,6.68 28.56,-4.141 28.59,-4.957 28.55,10.778 28.56,9.14 28.59,-24.879 28.56,-40.699 28.59,-10.121 28.56,31.41 28.55,54.449 28.59,53.121 28.56,10.2 28.59,-56.598 28.56,-66.723 28.55,4.571 28.6,63.011 28.55,39.258 28.59,-6.879 28.56,-0.082 28.55,44.532 28.6,77.39 28.55,76.988 28.6,45.352 28.55,13.121 28.59,18.328 28.56,36.442 28.55,10.507 28.6,-42.269 28.55,-57.5 28.6,-34.957 28.55,-17.543 28.55,-12.649 28.6,-19.46 28.55,-46.36 28.6,-59.031 28.55,-18.75 28.56,25.391 28.59,12.851 28.55,-20.191 28.6,-18.629 28.55,-9.731 28.56,-18.519 28.59,0.828 28.56,39.57 28.59,54.449 28.55,-14.418 28.56,-22.691 28.59,-13.519" /><path
             id="path430"
             style="fill:none;stroke:#ff1f5b;stroke-width:15;stroke-linecap:square;stroke-linejoin:round;stroke-miterlimit:4;stroke-dasharray:none;stroke-opacity:1"
             d="m 2174.84,415.309 28.6,-29.45 28.55,-4.839 28.56,-2.93 28.59,-18.871 28.56,-55.981 28.59,0.391 28.55,50.32 28.56,47.461 28.59,13.391 28.56,-17.813 28.59,-27.847 28.56,-17.582 28.55,-10.739 28.59,-18.281 28.56,-9.73 28.59,31.679 28.56,60.903 28.55,38.281 28.6,-7.852 28.55,-34.73 28.59,-36.129 28.56,-9.531 28.55,46.41 28.6,92.18 28.55,83.25 28.6,43 28.55,30.242 28.59,50.308 28.56,56.989 28.55,21.371 28.6,-34.45 28.55,-65.281 28.6,-51.64 28.55,-22.649 28.55,-17.308 28.6,-34.614 28.55,-46.25 28.6,-40.539 28.55,-25.277 28.56,-8.16 28.59,4.57 28.55,5.777 28.6,2.11 28.55,3.48 28.56,3.672 28.59,9.367 28.56,1.492 28.59,-14.96 28.55,9.371 28.56,14.379 28.59,-32.43" /></g></g><path
         id="path432"
         style="fill:none;stroke:#000000;stroke-width:8;stroke-linecap:square;stroke-linejoin:miter;stroke-miterlimit:4;stroke-dasharray:none;stroke-opacity:1"
         d="M 2101.99,13.9805 V 815.621"
         transform="scale(0.1)" /><path
         id="path434"
         style="fill:none;stroke:#000000;stroke-width:8;stroke-linecap:square;stroke-linejoin:miter;stroke-miterlimit:4;stroke-dasharray:none;stroke-opacity:1"
         d="M 2101.99,427.191 H 3704.8"
         transform="scale(0.1)" /><path
         id="path436"
         style="fill:none;stroke:#000000;stroke-width:8;stroke-linecap:butt;stroke-linejoin:round;stroke-miterlimit:4;stroke-dasharray:none;stroke-opacity:1"
         d="m 4092.07,427.191 v -35"
         transform="scale(0.1)" /><path
         id="path438"
         style="fill:#000000;fill-opacity:1;fill-rule:nonzero;stroke:none"
         d="m 4044.34,347.582 c -5.08,0 -8.91,-2.5 -11.45,-7.5 -2.54,-4.961 -3.83,-12.5 -3.83,-22.5 0,-10 1.29,-17.5 3.83,-22.5 2.54,-5 6.37,-7.5 11.45,-7.5 5.11,0 8.94,2.5 11.48,7.5 2.58,5 3.87,12.5 3.87,22.5 0,10 -1.29,17.539 -3.87,22.5 -2.54,5 -6.37,7.5 -11.48,7.5 z m 0,7.809 c 8.16,0 14.41,-3.2 18.75,-9.692 4.29,-6.437 6.44,-15.82 6.44,-28.117 0,-12.273 -2.15,-21.641 -6.44,-28.133 -4.34,-6.437 -10.59,-9.679 -18.75,-9.679 -8.17,0 -14.42,3.242 -18.72,9.679 -4.33,6.492 -6.48,15.86 -6.48,28.133 0,12.297 2.15,21.68 6.48,28.117 4.3,6.492 10.55,9.692 18.72,9.692 z"
         transform="scale(0.1)" /><path
         id="path440"
         style="fill:#000000;fill-opacity:1;fill-rule:nonzero;stroke:none"
         d="m 4086.88,281.168 h 10.3125 v 12.4219 H 4086.88 Z"
         transform="scale(0.1)" /><path
         id="path442"
         style="fill:#000000;fill-opacity:1;fill-rule:nonzero;stroke:none"
         d="m 4139.77,347.582 c -5.08,0 -8.91,-2.5 -11.49,-7.5 -2.54,-4.961 -3.83,-12.5 -3.83,-22.5 0,-10 1.29,-17.5 3.83,-22.5 2.58,-5 6.41,-7.5 11.49,-7.5 5.11,0 8.94,2.5 11.48,7.5 2.58,5 3.83,12.5 3.83,22.5 0,10 -1.25,17.539 -3.83,22.5 -2.54,5 -6.37,7.5 -11.48,7.5 z m 0,7.809 c 8.16,0 14.41,-3.2 18.71,-9.692 4.33,-6.437 6.48,-15.82 6.48,-28.117 0,-12.273 -2.15,-21.641 -6.48,-28.133 -4.3,-6.437 -10.55,-9.679 -18.71,-9.679 -8.17,0 -14.42,3.242 -18.75,9.679 -4.3,6.492 -6.45,15.86 -6.45,28.133 0,12.297 2.15,21.68 6.45,28.117 4.33,6.492 10.58,9.692 18.75,9.692 z"
         transform="scale(0.1)" /><path
         id="path444"
         style="fill:none;stroke:#000000;stroke-width:8;stroke-linecap:butt;stroke-linejoin:round;stroke-miterlimit:4;stroke-dasharray:none;stroke-opacity:1"
         d="m 4460.74,427.191 v -35"
         transform="scale(0.1)" /><path
         id="path446"
         style="fill:#000000;fill-opacity:1;fill-rule:nonzero;stroke:none"
         d="m 4413.01,347.582 c -5.08,0 -8.91,-2.5 -11.49,-7.5 -2.54,-4.961 -3.82,-12.5 -3.82,-22.5 0,-10 1.28,-17.5 3.82,-22.5 2.58,-5 6.41,-7.5 11.49,-7.5 5.08,0 8.94,2.5 11.48,7.5 2.58,5 3.83,12.5 3.83,22.5 0,10 -1.25,17.539 -3.83,22.5 -2.54,5 -6.4,7.5 -11.48,7.5 z m 0,7.809 c 8.16,0 14.41,-3.2 18.71,-9.692 4.33,-6.437 6.48,-15.82 6.48,-28.117 0,-12.273 -2.15,-21.641 -6.48,-28.133 -4.3,-6.437 -10.55,-9.679 -18.71,-9.679 -8.21,0 -14.42,3.242 -18.75,9.679 -4.3,6.492 -6.45,15.86 -6.45,28.133 0,12.297 2.15,21.68 6.45,28.117 4.33,6.492 10.54,9.692 18.75,9.692 z"
         transform="scale(0.1)" /><path
         id="path448"
         style="fill:#000000;fill-opacity:1;fill-rule:nonzero;stroke:none"
         d="m 4455.51,281.168 h 10.3086 v 12.4219 H 4455.51 Z"
         transform="scale(0.1)" /><path
         id="path450"
         style="fill:#000000;fill-opacity:1;fill-rule:nonzero;stroke:none"
         d="m 4495.82,289.488 h 34.41 v -8.316 h -46.28 v 8.316 c 3.75,3.871 8.82,9.063 15.31,15.594 6.44,6.52 10.51,10.738 12.19,12.648 3.12,3.52 5.35,6.532 6.6,8.989 1.25,2.461 1.87,4.883 1.87,7.261 0,3.872 -1.37,7.04 -4.06,9.461 -2.74,2.457 -6.25,3.668 -10.63,3.668 -3.08,0 -6.36,-0.55 -9.8,-1.597 -3.44,-1.102 -7.11,-2.703 -11.02,-4.891 v 9.969 c 3.99,1.601 7.7,2.769 11.14,3.59 3.47,0.82 6.64,1.211 9.49,1.211 7.54,0 13.55,-1.871 18.05,-5.661 4.49,-3.75 6.75,-8.789 6.75,-15.121 0,-3.007 -0.58,-5.859 -1.68,-8.519 -1.13,-2.692 -3.16,-5.86 -6.13,-9.488 -0.82,-0.942 -3.4,-3.672 -7.77,-8.204 -4.34,-4.488 -10.51,-10.816 -18.44,-18.91 z"
         transform="scale(0.1)" /><path
         id="path452"
         style="fill:none;stroke:#000000;stroke-width:8;stroke-linecap:butt;stroke-linejoin:round;stroke-miterlimit:4;stroke-dasharray:none;stroke-opacity:1"
         d="m 4829.38,427.191 v -35"
         transform="scale(0.1)" /><path
         id="path454"
         style="fill:#000000;fill-opacity:1;fill-rule:nonzero;stroke:none"
         d="m 4781.64,347.582 c -5.08,0 -8.91,-2.5 -11.44,-7.5 -2.58,-4.961 -3.83,-12.5 -3.83,-22.5 0,-10 1.25,-17.5 3.83,-22.5 2.53,-5 6.36,-7.5 11.44,-7.5 5.12,0 8.95,2.5 11.48,7.5 2.58,5 3.87,12.5 3.87,22.5 0,10 -1.29,17.539 -3.87,22.5 -2.53,5 -6.36,7.5 -11.48,7.5 z m 0,7.809 c 8.16,0 14.41,-3.2 18.75,-9.692 4.3,-6.437 6.45,-15.82 6.45,-28.117 0,-12.273 -2.15,-21.641 -6.45,-28.133 -4.34,-6.437 -10.59,-9.679 -18.75,-9.679 -8.16,0 -14.41,3.242 -18.71,9.679 -4.34,6.492 -6.48,15.86 -6.48,28.133 0,12.297 2.14,21.68 6.48,28.117 4.3,6.492 10.55,9.692 18.71,9.692 z"
         transform="scale(0.1)" /><path
         id="path456"
         style="fill:#000000;fill-opacity:1;fill-rule:nonzero;stroke:none"
         d="m 4824.18,281.168 h 10.3086 v 12.4219 H 4824.18 Z"
         transform="scale(0.1)" /><path
         id="path458"
         style="fill:#000000;fill-opacity:1;fill-rule:nonzero;stroke:none"
         d="m 4883.05,345.512 -24.89,-38.953 h 24.89 z m -2.58,8.59 h 12.42 v -47.543 h 10.39 v -8.2 h -10.39 v -17.187 h -9.84 v 17.187 h -32.89 v 9.532 z"
         transform="scale(0.1)" /><path
         id="path460"
         style="fill:none;stroke:#000000;stroke-width:8;stroke-linecap:butt;stroke-linejoin:round;stroke-miterlimit:4;stroke-dasharray:none;stroke-opacity:1"
         d="m 5198.01,427.191 v -35"
         transform="scale(0.1)" /><path
         id="path462"
         style="fill:#000000;fill-opacity:1;fill-rule:nonzero;stroke:none"
         d="m 5150.27,347.582 c -5.04,0 -8.86,-2.5 -11.44,-7.5 -2.54,-4.961 -3.83,-12.5 -3.83,-22.5 0,-10 1.29,-17.5 3.83,-22.5 2.58,-5 6.4,-7.5 11.44,-7.5 5.12,0 8.95,2.5 11.53,7.5 2.54,5 3.82,12.5 3.82,22.5 0,10 -1.28,17.539 -3.82,22.5 -2.58,5 -6.41,7.5 -11.53,7.5 z m 0,7.809 c 8.21,0 14.46,-3.2 18.75,-9.692 4.3,-6.437 6.49,-15.82 6.49,-28.117 0,-12.273 -2.19,-21.641 -6.49,-28.133 -4.29,-6.437 -10.54,-9.679 -18.75,-9.679 -8.16,0 -14.37,3.242 -18.71,9.679 -4.29,6.492 -6.44,15.86 -6.44,28.133 0,12.297 2.15,21.68 6.44,28.117 4.34,6.492 10.55,9.692 18.71,9.692 z"
         transform="scale(0.1)" /><path
         id="path464"
         style="fill:#000000;fill-opacity:1;fill-rule:nonzero;stroke:none"
         d="m 5192.81,281.168 h 10.3125 v 12.4219 H 5192.81 Z"
         transform="scale(0.1)" /><path
         id="path466"
         style="fill:#000000;fill-opacity:1;fill-rule:nonzero;stroke:none"
         d="m 5246.91,321.559 c -4.41,0 -7.93,-1.52 -10.5,-4.528 -2.58,-3.051 -3.87,-7.191 -3.87,-12.461 0,-5.23 1.29,-9.371 3.87,-12.422 2.57,-3.046 6.09,-4.566 10.5,-4.566 4.46,0 7.97,1.52 10.55,4.566 2.58,3.051 3.87,7.192 3.87,12.422 0,5.27 -1.29,9.41 -3.87,12.461 -2.58,3.008 -6.09,4.528 -10.55,4.528 z m 19.61,30.941 v -8.98 c -2.5,1.171 -5,2.031 -7.5,2.652 -2.54,0.629 -5.04,0.937 -7.5,0.937 -6.52,0 -11.48,-2.187 -14.92,-6.597 -3.44,-4.383 -5.39,-11.024 -5.9,-19.922 1.92,2.851 4.34,5 7.23,6.519 2.89,1.52 6.09,2.27 9.57,2.27 7.34,0 13.12,-2.231 17.38,-6.68 4.22,-4.418 6.37,-10.469 6.37,-18.129 0,-7.461 -2.23,-13.48 -6.64,-18.011 -4.41,-4.528 -10.31,-6.789 -17.7,-6.789 -8.43,0 -14.88,3.242 -19.33,9.679 -4.46,6.492 -6.68,15.86 -6.68,28.133 0,11.52 2.73,20.699 8.2,27.539 5.47,6.867 12.81,10.27 22.03,10.27 2.46,0 4.96,-0.231 7.5,-0.7 2.5,-0.511 5.16,-1.25 7.89,-2.191 z"
         transform="scale(0.1)" /><path
         id="path468"
         style="fill:#000000;fill-opacity:1;fill-rule:nonzero;stroke:none"
         d="m 4445.62,217.301 h 61.65 v -8.321 h -25.86 v -64.57 h -9.93 v 64.57 h -25.86 z"
         transform="scale(0.1)" /><path
         id="path470"
         style="fill:#000000;fill-opacity:1;fill-rule:nonzero;stroke:none"
         d="m 4513.28,199.102 h 8.9883 v -54.6914 h -8.9883 z m 0,21.289 h 8.9883 v -11.4102 h -8.9883 z"
         transform="scale(0.1)" /><path
         id="path472"
         style="fill:#000000;fill-opacity:1;fill-rule:nonzero;stroke:none"
         d="m 4583.63,188.59 c 2.27,4.07 4.96,7.031 8.09,8.949 3.12,1.91 6.8,2.852 11.01,2.852 5.71,0 10.12,-1.993 13.21,-5.981 3.08,-3.98 4.65,-9.64 4.65,-16.988 V 144.41 h -9.07 v 32.699 c 0,5.27 -0.9,9.141 -2.77,11.68 -1.87,2.543 -4.69,3.793 -8.48,3.793 -4.68,0 -8.36,-1.531 -11.05,-4.613 -2.7,-3.09 -4.06,-7.309 -4.06,-12.66 V 144.41 h -9.03 v 32.699 c 0,5.27 -0.93,9.18 -2.77,11.723 -1.88,2.5 -4.73,3.75 -8.59,3.75 -4.61,0 -8.25,-1.531 -10.98,-4.652 -2.7,-3.09 -4.02,-7.309 -4.02,-12.621 V 144.41 h -9.03 v 54.692 h 9.03 v -8.512 c 2.03,3.359 4.49,5.82 7.38,7.422 2.85,1.597 6.25,2.379 10.19,2.379 3.99,0 7.35,-0.981 10.12,-3.012 2.81,-2.027 4.84,-4.957 6.17,-8.789 z"
         transform="scale(0.1)" /><path
         id="path474"
         style="fill:#000000;fill-opacity:1;fill-rule:nonzero;stroke:none"
         d="m 4685.27,173.98 v -4.371 h -41.32 c 0.39,-6.168 2.26,-10.898 5.58,-14.14 3.36,-3.239 8.01,-4.848 13.95,-4.848 3.43,0 6.79,0.399 10.04,1.258 3.24,0.851 6.44,2.101 9.64,3.82 v -8.508 c -3.24,-1.371 -6.52,-2.421 -9.92,-3.132 -3.4,-0.7 -6.79,-1.09 -10.27,-1.09 -8.75,0 -15.67,2.543 -20.74,7.621 -5.12,5.07 -7.66,11.949 -7.66,20.621 0,8.949 2.42,16.059 7.27,21.289 4.8,5.27 11.32,7.891 19.57,7.891 7.34,0 13.16,-2.34 17.42,-7.11 4.29,-4.73 6.44,-11.133 6.44,-19.301 z m -8.98,2.661 c -0.08,4.918 -1.45,8.828 -4.14,11.757 -2.7,2.934 -6.25,4.411 -10.67,4.411 -5,0 -9.02,-1.438 -12.03,-4.258 -3,-2.852 -4.76,-6.832 -5.19,-11.992 z"
         transform="scale(0.1)" /><path
         id="path476"
         style="fill:#000000;fill-opacity:1;fill-rule:nonzero;stroke:none"
         d="m 4753.36,220.27 c -4.34,-7.461 -7.58,-14.879 -9.73,-22.219 -2.11,-7.313 -3.16,-14.731 -3.16,-22.27 0,-7.5 1.09,-14.922 3.2,-22.301 2.15,-7.39 5.39,-14.808 9.69,-22.269 h -7.81 c -4.89,7.66 -8.52,15.199 -10.94,22.578 -2.42,7.383 -3.63,14.731 -3.63,21.992 0,7.27 1.17,14.571 3.59,21.949 2.42,7.352 6.09,14.891 10.98,22.54 z"
         transform="scale(0.1)" /><path
         id="path478"
         style="fill:#000000;fill-opacity:1;fill-rule:nonzero;stroke:none"
         d="m 4805.66,197.5 v -8.52 c -2.54,1.29 -5.15,2.27 -7.89,2.93 -2.73,0.672 -5.58,0.981 -8.51,0.981 -4.46,0 -7.81,-0.661 -10.04,-2.032 -2.23,-1.371 -3.32,-3.437 -3.32,-6.168 0,-2.07 0.78,-3.711 2.38,-4.921 1.6,-1.18 4.81,-2.309 9.61,-3.36 l 3.09,-0.711 c 6.36,-1.359 10.9,-3.277 13.59,-5.777 2.7,-2.5 4.02,-5.973 4.02,-10.434 0,-5.078 -1.99,-9.097 -6.01,-12.066 -4.03,-2.973 -9.57,-4.453 -16.6,-4.453 -2.89,0 -5.98,0.312 -9.14,0.863 -3.17,0.578 -6.53,1.438 -10.04,2.578 v 9.289 c 3.32,-1.75 6.6,-3.039 9.8,-3.898 3.24,-0.86 6.45,-1.289 9.61,-1.289 4.22,0 7.46,0.738 9.73,2.187 2.3,1.442 3.44,3.473 3.44,6.133 0,2.418 -0.83,4.289 -2.47,5.578 -1.64,1.328 -5.23,2.578 -10.82,3.789 l -3.12,0.711 c -5.59,1.172 -9.57,2.969 -12.07,5.391 -2.46,2.461 -3.71,5.781 -3.71,10 0,5.148 1.83,9.097 5.47,11.91 3.67,2.809 8.82,4.18 15.54,4.18 3.32,0 6.45,-0.231 9.34,-0.7 2.97,-0.511 5.66,-1.211 8.12,-2.191 z"
         transform="scale(0.1)" /><path
         id="path480"
         style="fill:#000000;fill-opacity:1;fill-rule:nonzero;stroke:none"
         d="m 4821.48,220.27 h 7.82 c 4.88,-7.649 8.55,-15.188 10.97,-22.54 2.43,-7.378 3.64,-14.679 3.64,-21.949 0,-7.261 -1.21,-14.609 -3.64,-21.992 -2.42,-7.379 -6.09,-14.918 -10.97,-22.578 h -7.82 c 4.34,7.461 7.58,14.879 9.69,22.269 2.15,7.379 3.21,14.801 3.21,22.301 0,7.539 -1.06,14.957 -3.21,22.27 -2.11,7.34 -5.35,14.758 -9.69,22.219 z"
         transform="scale(0.1)" /><path
         id="path482"
         style="fill:none;stroke:#000000;stroke-width:8;stroke-linecap:butt;stroke-linejoin:round;stroke-miterlimit:4;stroke-dasharray:none;stroke-opacity:1"
         d="m 3847.81,189.879 h -35"
         transform="scale(0.1)" /><path
         id="path484"
         style="fill:none;stroke:#000000;stroke-width:8;stroke-linecap:butt;stroke-linejoin:round;stroke-miterlimit:4;stroke-dasharray:none;stroke-opacity:1"
         d="m 3847.81,427.191 h -35"
         transform="scale(0.1)" /><path
         id="path486"
         style="fill:none;stroke:#000000;stroke-width:8;stroke-linecap:butt;stroke-linejoin:round;stroke-miterlimit:4;stroke-dasharray:none;stroke-opacity:1"
         d="m 3847.81,664.488 h -35"
         transform="scale(0.1)" /><g
         id="g488"
         transform="scale(0.1)"><g
           clip-path="url(#clipPath494)"
           id="g490"><path
             id="path496"
             style="fill:none;stroke:#88ccac;stroke-width:15;stroke-linecap:square;stroke-linejoin:round;stroke-miterlimit:4;stroke-dasharray:none;stroke-opacity:1"
             d="m 3920.66,361.371 28.56,-2.351 28.55,-0.188 28.6,5.938 28.55,6.64 28.6,7.891 28.55,8.121 28.55,-0.121 28.6,-7.653 28.55,-3.789 28.6,0.981 28.55,0.93 28.56,13.011 28.59,35.739 28.55,29.929 28.6,-23.828 28.55,-79.891 28.56,-73.468 28.59,0.468 28.56,72.54 28.59,68.082 28.55,-6.25 28.56,-60.27 28.59,-23.523 28.56,66.101 28.59,108.199 28.56,64.063 28.59,-3.871 28.55,-18.781 28.56,18.98 28.59,49.219 28.56,36.402 28.59,0.32 28.56,-26.211 28.55,-31.41 28.59,-19.218 28.56,-3.481 28.59,-2.262 28.56,-14.648 28.55,-20.981 28.6,-17.808 28.55,-19.531 28.59,-22.5 28.56,-12.5 28.55,-0.512 28.6,-4.527 28.55,-12.973 28.6,-8.277 28.55,1.289 28.56,5.121 28.59,9.449 28.55,15.348" /><path
             id="path498"
             style="fill:none;stroke:#45cc8d;stroke-width:15;stroke-linecap:square;stroke-linejoin:round;stroke-miterlimit:4;stroke-dasharray:none;stroke-opacity:1"
             d="m 3920.66,399.301 28.56,-40.352 28.55,-11.758 28.6,18.547 28.55,16.293 28.6,-0.582 28.55,-12.617 28.55,-4.613 28.6,4.961 28.55,0.511 28.6,-6.101 28.55,2.269 28.56,22.582 28.59,36.047 28.55,26.293 28.6,-9.41 28.55,-52.621 28.56,-67.23 28.59,-30.348 28.56,27.699 28.59,41.25 28.55,-7.742 28.56,-49.68 28.59,-11.801 28.56,76.133 28.59,114.379 28.56,68.711 28.59,10.699 28.55,9.84 28.56,46.02 28.59,59.101 28.56,33.789 28.59,-3.441 28.56,-30.699 28.55,-40.899 28.59,-32.89 28.56,-18.09 28.59,-13.672 28.56,-19.797 28.55,-22.703 28.6,-18.75 28.55,-14.918 28.59,-13.871 28.56,-15.039 28.55,-17.219 28.6,-13.32 28.55,1.718 28.6,9.102 28.55,6.477 28.56,-8.938 28.59,-1.371 28.55,-11.762" /><path
             id="path500"
             style="fill:none;stroke:#00cd6c;stroke-width:15;stroke-linecap:square;stroke-linejoin:round;stroke-miterlimit:4;stroke-dasharray:none;stroke-opacity:1"
             d="m 3920.66,404.059 28.56,-25.969 28.55,-14.461 28.6,7.461 28.55,11.762 28.6,-1.602 28.55,-4.02 28.55,-8.992 28.6,-13.859 28.55,-1.649 28.6,21.29 28.55,24.929 28.56,2.18 28.59,-19.488 28.55,-13.243 28.6,17.071 28.55,40.23 28.56,22.699 28.59,-32.617 28.56,-75.16 28.59,-58.82 28.55,0.39 28.56,43.938 28.59,40.711 28.56,14.332 28.59,7.617 28.56,38.633 28.59,85.238 28.55,101.32 28.56,63.36 28.59,4.89 28.56,-16.57 28.59,6.25 28.56,21.641 28.55,-5.891 28.59,-49.219 28.56,-65.281 28.59,-51.711 28.56,-28.75 28.55,-1.679 28.6,22.531 28.55,17.699 28.59,-19.609 28.56,-44.141 28.55,-23.52 28.6,7.54 28.55,8.171 28.6,-5.589 28.55,-7.461 28.56,-4.02 28.59,-9.922 28.55,-4.808" /></g></g><path
         id="path502"
         style="fill:none;stroke:#000000;stroke-width:8;stroke-linecap:square;stroke-linejoin:miter;stroke-miterlimit:4;stroke-dasharray:none;stroke-opacity:1"
         d="M 3847.81,13.9805 V 815.621"
         transform="scale(0.1)" /><path
         id="path504"
         style="fill:none;stroke:#000000;stroke-width:8;stroke-linecap:square;stroke-linejoin:miter;stroke-miterlimit:4;stroke-dasharray:none;stroke-opacity:1"
         d="M 3847.81,427.191 H 5450.59"
         transform="scale(0.1)" /><text
         xml:space="preserve"
         style="font-style:normal;font-variant:normal;font-weight:normal;font-stretch:normal;font-size:80px;font-family:'open Sans';-inkscape-font-specification:'open Sans';text-align:start;text-anchor:start;fill:#999999;fill-opacity:1;stroke-width:7.5"
         x="1094.0305"
         y="-111.14355"
         id="text2771"
         transform="scale(0.1,-0.1)"><tspan
           sodipodi:role="line"
           id="tspan2769"
           style="font-size:80px;fill:#999999;fill-opacity:1;stroke-width:7.5"
           x="1094.0305"
           y="-111.14355">but decreases other</tspan><tspan
           sodipodi:role="line"
           style="font-size:80px;fill:#999999;fill-opacity:1;stroke-width:7.5"
           x="1094.0305"
           y="-11.143547"
           id="tspan2773">component SNRs</tspan></text><text
         xml:space="preserve"
         style="font-style:normal;font-variant:normal;font-weight:normal;font-stretch:normal;font-size:120px;font-family:'open Sans';-inkscape-font-specification:'open Sans';text-align:start;text-anchor:start;fill:#000000;fill-opacity:0.972549;stroke-width:7.5"
         x="679.82013"
         y="-2560.1794"
         id="text3431"
         transform="scale(0.1,-0.1)"><tspan
           sodipodi:role="line"
           id="tspan3429"
           style="font-size:120px;fill:#000000;fill-opacity:0.972549;stroke-width:7.5"
           x="679.82013"
           y="-2560.1794">overt attention</tspan></text><text
         xml:space="preserve"
         style="font-style:normal;font-variant:normal;font-weight:normal;font-stretch:normal;font-size:120px;font-family:'open Sans';-inkscape-font-specification:'open Sans';text-align:start;text-anchor:start;fill:#000000;fill-opacity:0.972549;stroke-width:7.5"
         x="2443.9302"
         y="-2560.1794"
         id="text4119"
         transform="scale(0.1,-0.1)"><tspan
           sodipodi:role="line"
           id="tspan4117"
           style="stroke-width:7.5"
           x="2443.9302"
           y="-2560.1794">covert attention</tspan></text><text
         xml:space="preserve"
         style="font-style:normal;font-variant:normal;font-weight:normal;font-stretch:normal;font-size:120px;font-family:'open Sans';-inkscape-font-specification:'open Sans';text-align:start;text-anchor:start;fill:#000000;fill-opacity:0.972549;stroke-width:7.5"
         x="4247.2744"
         y="-2572.4548"
         id="text4123"
         transform="scale(0.1,-0.1)"><tspan
           sodipodi:role="line"
           id="tspan4121"
           style="stroke-width:7.5"
           x="4247.2744"
           y="-2572.4548">split attention</tspan></text><g
         id="g4189"><path
           id="path14"
           style="fill:#000000;fill-opacity:1;fill-rule:nonzero;stroke:none"
           d="m 1311.95,2437.85 170.16,0.94"
           transform="scale(0.1)" /><path
           id="path16"
           style="fill:none;stroke:#999999;stroke-width:10;stroke-linecap:butt;stroke-linejoin:miter;stroke-miterlimit:4;stroke-dasharray:none;stroke-opacity:1"
           d="m 1311.95,2437.85 170.16,0.94"
           transform="scale(0.1)" /><path
           id="path18"
           style="fill:none;stroke:#999999;stroke-width:10;stroke-linecap:butt;stroke-linejoin:miter;stroke-miterlimit:4;stroke-dasharray:none;stroke-opacity:1"
           d="m 1229.02,2155.78 h 262.74"
           transform="scale(0.1)" /><path
           id="path20"
           style="fill:none;stroke:#000000;stroke-width:8;stroke-linecap:butt;stroke-linejoin:round;stroke-miterlimit:4;stroke-dasharray:none;stroke-opacity:1"
           d="m 600.469,1455.47 v -35"
           transform="scale(0.1)" /><path
           id="path22"
           style="fill:none;stroke:#000000;stroke-width:8;stroke-linecap:butt;stroke-linejoin:round;stroke-miterlimit:4;stroke-dasharray:none;stroke-opacity:1"
           d="m 969.141,1455.47 v -35"
           transform="scale(0.1)" /><path
           id="path24"
           style="fill:none;stroke:#000000;stroke-width:8;stroke-linecap:butt;stroke-linejoin:round;stroke-miterlimit:4;stroke-dasharray:none;stroke-opacity:1"
           d="m 1337.77,1455.47 v -35"
           transform="scale(0.1)" /><path
           id="path26"
           style="fill:none;stroke:#000000;stroke-width:8;stroke-linecap:butt;stroke-linejoin:round;stroke-miterlimit:4;stroke-dasharray:none;stroke-opacity:1"
           d="m 1706.45,1455.47 v -35"
           transform="scale(0.1)" /><path
           id="path28"
           style="fill:none;stroke:#000000;stroke-width:8;stroke-linecap:butt;stroke-linejoin:round;stroke-miterlimit:4;stroke-dasharray:none;stroke-opacity:1"
           d="m 356.211,1011.09 h -35"
           transform="scale(0.1)" /><path
           id="path32"
           style="fill:#000000;fill-opacity:1;fill-rule:nonzero;stroke:none"
           d="m 260.352,1037.42 -24.883,-38.9 h 24.883 z m -2.582,8.6 h 12.429 v -47.5 h 10.391 v -8.211 h -10.391 v -17.188 h -9.847 v 17.188 h -32.891 v 9.492 z"
           transform="scale(0.1)" /><path
           id="path34"
           style="fill:none;stroke:#000000;stroke-width:8;stroke-linecap:butt;stroke-linejoin:round;stroke-miterlimit:4;stroke-dasharray:none;stroke-opacity:1"
           d="m 356.211,1233.28 h -35"
           transform="scale(0.1)" /><path
           id="path38"
           style="fill:#000000;fill-opacity:1;fill-rule:nonzero;stroke:none"
           d="m 241.762,1203.59 h 34.41 v -8.28 h -46.293 v 8.28 c 3.75,3.87 8.871,9.07 15.32,15.59 6.481,6.56 10.539,10.74 12.18,12.66 3.172,3.55 5.351,6.52 6.601,8.98 1.25,2.46 1.918,4.88 1.918,7.27 0,3.86 -1.367,7.03 -4.097,9.45 -2.699,2.46 -6.25,3.67 -10.629,3.67 -3.082,0 -6.371,-0.51 -9.801,-1.6 -3.402,-1.06 -7.07,-2.7 -10.98,-4.88 v 9.96 c 3.949,1.6 7.66,2.81 11.129,3.63 3.441,0.78 6.601,1.21 9.46,1.21 7.571,0 13.59,-1.91 18.079,-5.66 4.492,-3.79 6.722,-8.83 6.722,-15.16 0,-2.97 -0.551,-5.82 -1.679,-8.51 -1.133,-2.7 -3.161,-5.82 -6.133,-9.5 -0.821,-0.93 -3.399,-3.67 -7.77,-8.16 -4.34,-4.53 -10.508,-10.82 -18.437,-18.95 z"
           transform="scale(0.1)" /><path
           id="path40"
           style="fill:none;stroke:#000000;stroke-width:8;stroke-linecap:butt;stroke-linejoin:round;stroke-miterlimit:4;stroke-dasharray:none;stroke-opacity:1"
           d="m 356.211,1455.47 h -35"
           transform="scale(0.1)" /><path
           id="path42"
           style="fill:#000000;fill-opacity:1;fill-rule:nonzero;stroke:none"
           d="m 254.379,1483.91 c -5.078,0 -8.91,-2.5 -11.488,-7.5 -2.539,-5 -3.832,-12.5 -3.832,-22.54 0,-10 1.293,-17.5 3.832,-22.5 2.578,-5 6.41,-7.5 11.488,-7.5 5.109,0 8.941,2.5 11.48,7.5 2.582,5 3.832,12.5 3.832,22.5 0,10.04 -1.25,17.54 -3.832,22.54 -2.539,5 -6.371,7.5 -11.48,7.5 z m 0,7.81 c 8.16,0 14.41,-3.24 18.711,-9.73 4.332,-6.44 6.48,-15.82 6.48,-28.12 0,-12.27 -2.148,-21.64 -6.48,-28.13 -4.301,-6.44 -10.551,-9.69 -18.711,-9.69 -8.168,0 -14.418,3.25 -18.758,9.69 -4.293,6.49 -6.441,15.86 -6.441,28.13 0,12.3 2.148,21.68 6.441,28.12 4.34,6.49 10.59,9.73 18.758,9.73 z"
           transform="scale(0.1)" /><path
           id="path44"
           style="fill:none;stroke:#000000;stroke-width:8;stroke-linecap:butt;stroke-linejoin:round;stroke-miterlimit:4;stroke-dasharray:none;stroke-opacity:1"
           d="m 356.211,1677.66 h -35"
           transform="scale(0.1)" /><path
           id="path46"
           style="fill:#000000;fill-opacity:1;fill-rule:nonzero;stroke:none"
           d="m 241.762,1647.97 h 34.41 v -8.28 h -46.25 v 8.28 c 3.707,3.87 8.828,9.06 15.277,15.58 6.481,6.57 10.539,10.75 12.18,12.66 3.172,3.56 5.351,6.52 6.601,8.99 1.29,2.46 1.918,4.88 1.918,7.26 0,3.87 -1.367,7.03 -4.097,9.45 -2.699,2.47 -6.25,3.68 -10.629,3.68 -3.082,0 -6.332,-0.51 -9.762,-1.61 -3.441,-1.05 -7.109,-2.69 -11.019,-4.88 v 9.96 c 3.988,1.6 7.699,2.82 11.129,3.64 3.441,0.78 6.601,1.21 9.5,1.21 7.531,0 13.55,-1.92 18.039,-5.67 4.492,-3.79 6.722,-8.83 6.722,-15.15 0,-2.97 -0.551,-5.82 -1.679,-8.52 -1.09,-2.69 -3.161,-5.82 -6.133,-9.49 -0.778,-0.94 -3.399,-3.67 -7.739,-8.17 -4.371,-4.53 -10.5,-10.82 -18.468,-18.94 z"
           transform="scale(0.1)" /><path
           id="path48"
           style="fill:none;stroke:#000000;stroke-width:8;stroke-linecap:butt;stroke-linejoin:round;stroke-miterlimit:4;stroke-dasharray:none;stroke-opacity:1"
           d="m 356.211,1899.84 h -35"
           transform="scale(0.1)" /><path
           id="path50"
           style="fill:#000000;fill-opacity:1;fill-rule:nonzero;stroke:none"
           d="m 260.391,1926.17 -24.922,-38.9 h 24.922 z m -2.621,8.6 h 12.429 v -47.5 h 10.391 v -8.21 h -10.391 v -17.18 h -9.808 v 17.18 h -32.93 v 9.49 z"
           transform="scale(0.1)" /><path
           id="path52"
           style="fill:none;stroke:#000000;stroke-width:8;stroke-linecap:butt;stroke-linejoin:round;stroke-miterlimit:4;stroke-dasharray:none;stroke-opacity:1"
           d="m 356.211,2122.03 h -35"
           transform="scale(0.1)" /><path
           id="path54"
           style="fill:#000000;fill-opacity:1;fill-rule:nonzero;stroke:none"
           d="m 255.59,2124.41 c -4.418,0 -7.93,-1.48 -10.512,-4.53 -2.617,-3 -3.906,-7.15 -3.906,-12.42 0,-5.27 1.289,-9.41 3.906,-12.46 2.582,-3.05 6.094,-4.57 10.512,-4.57 4.449,0 7.93,1.52 10.5,4.57 2.621,3.05 3.91,7.19 3.91,12.46 0,5.27 -1.289,9.42 -3.91,12.42 -2.57,3.05 -6.051,4.53 -10.5,4.53 z m 19.57,30.94 v -8.98 c -2.461,1.17 -4.961,2.07 -7.5,2.65 -2.5,0.63 -5,0.94 -7.5,0.94 -6.488,0 -11.488,-2.19 -14.93,-6.56 -3.39,-4.42 -5.351,-11.06 -5.851,-19.92 1.91,2.81 4.332,5 7.223,6.48 2.886,1.52 6.097,2.27 9.57,2.27 7.308,0 13.129,-2.23 17.348,-6.64 4.25,-4.46 6.402,-10.51 6.402,-18.13 0,-7.5 -2.223,-13.51 -6.641,-18.05 -4.453,-4.53 -10.351,-6.79 -17.691,-6.79 -8.442,0 -14.891,3.24 -19.34,9.68 -4.449,6.49 -6.68,15.86 -6.68,28.13 0,11.52 2.731,20.7 8.2,27.58 5.468,6.83 12.82,10.27 22,10.27 2.5,0 5,-0.23 7.5,-0.74 2.531,-0.51 5.152,-1.21 7.89,-2.19 z"
           transform="scale(0.1)" /><path
           id="path56"
           style="fill:none;stroke:#000000;stroke-width:8;stroke-linecap:butt;stroke-linejoin:round;stroke-miterlimit:4;stroke-dasharray:none;stroke-opacity:1"
           d="m 356.211,2344.22 h -35"
           transform="scale(0.1)" /><path
           id="path58"
           style="fill:#000000;fill-opacity:1;fill-rule:nonzero;stroke:none"
           d="m 254.379,2340.86 c -4.688,0 -8.399,-1.25 -11.098,-3.75 -2.66,-2.5 -3.98,-5.98 -3.98,-10.35 0,-4.38 1.32,-7.85 3.98,-10.35 2.699,-2.5 6.41,-3.79 11.098,-3.79 4.68,0 8.351,1.29 11.051,3.79 2.73,2.54 4.058,5.97 4.058,10.35 0,4.37 -1.328,7.85 -4.019,10.35 -2.699,2.5 -6.367,3.75 -11.09,3.75 z m -9.891,4.18 c -4.218,1.05 -7.5,3.05 -9.879,5.94 -2.339,2.89 -3.519,6.44 -3.519,10.58 0,5.82 2.07,10.43 6.211,13.83 4.148,3.4 9.847,5.08 17.078,5.08 7.223,0 12.922,-1.68 17.07,-5.08 4.141,-3.4 6.211,-8.01 6.211,-13.83 0,-4.14 -1.18,-7.69 -3.558,-10.58 -2.34,-2.89 -5.622,-4.89 -9.801,-5.94 4.719,-1.09 8.429,-3.24 11.09,-6.49 2.66,-3.2 3.988,-7.14 3.988,-11.79 0,-7.07 -2.188,-12.5 -6.488,-16.29 -4.301,-3.75 -10.512,-5.67 -18.512,-5.67 -8.051,0 -14.219,1.92 -18.559,5.67 -4.3,3.79 -6.441,9.22 -6.441,16.29 0,4.65 1.32,8.59 3.98,11.79 2.692,3.25 6.411,5.4 11.129,6.49 z m -3.59,15.58 c 0,-3.74 1.172,-6.71 3.512,-8.82 2.391,-2.11 5.711,-3.17 9.969,-3.17 4.211,0 7.531,1.06 9.922,3.17 2.379,2.11 3.59,5.08 3.59,8.82 0,3.79 -1.211,6.76 -3.59,8.87 -2.391,2.11 -5.711,3.17 -9.922,3.17 -4.258,0 -7.578,-1.06 -9.969,-3.17 -2.34,-2.11 -3.512,-5.08 -3.512,-8.87 z"
           transform="scale(0.1)" /><g
           id="g86"
           transform="scale(0.1)"><g
             clip-path="url(#clipPath92)"
             id="g88"><path
               id="path94"
               style="fill:none;stroke:#94c7dd;stroke-width:15;stroke-linecap:square;stroke-linejoin:round;stroke-miterlimit:4;stroke-dasharray:none;stroke-opacity:1"
               d="m 429.059,1351.09 28.562,-5.89 28.59,-0.79 28.559,-3.59 28.55,-13.75 28.59,-16.91 28.559,-7.07 28.59,0.62 28.562,-4.1 28.551,-1.56 28.598,17.73 28.55,10.43 28.59,-44.76 28.559,-68.33 28.551,7.23 28.601,94.18 28.551,75.59 28.598,16.72 28.55,62.34 28.559,175.16 28.591,187.22 28.55,69.42 28.6,-49.1 28.55,-88.91 28.56,-64.49 28.59,19.45 28.56,141.45 28.59,193.78 28.55,102.62 28.6,-40.51 28.55,-97.61 28.56,-65.24 28.59,-34.65 28.56,-50.27 28.59,-89.65 28.55,-117.77 28.56,-106.72 28.59,-52.11 28.56,5.82 28.59,17.38 28.56,-20.19 28.55,-61.06 28.59,-60.82 28.56,-23.16 28.59,4.8 28.56,-0.7 28.55,-3.52 28.6,19.73 28.55,21.95 28.59,-25.03 28.56,-54.26 28.55,-9.14" /><path
               id="path96"
               style="fill:none;stroke:#4bb1dd;stroke-width:15;stroke-linecap:square;stroke-linejoin:round;stroke-miterlimit:4;stroke-dasharray:none;stroke-opacity:1"
               d="m 429.059,1341.29 28.562,-8.44 28.59,35.86 28.559,25.98 28.55,-34.57 28.59,-74.42 28.559,-33.82 28.59,7.46 28.562,12.81 28.551,19.26 28.598,21.25 28.55,-27.66 28.59,-88.79 28.559,-61.21 28.551,55 28.601,135.43 28.551,105.82 28.598,46.6 28.55,68.13 28.559,140.62 28.591,140.16 28.55,40.51 28.6,-52.97 28.55,-67.66 28.56,-33.05 28.59,27.97 28.56,127.5 28.59,207.07 28.55,162.78 28.6,16.25 28.55,-84.81 28.56,-75.9 28.59,-50.47 28.56,-93.2 28.59,-159.84 28.55,-166.21 28.56,-105.59 28.59,-34.3 28.56,3.56 28.59,-1.13 28.56,-37.97 28.55,-80.08 28.59,-86.13 28.56,-38.99 28.59,24.53 28.56,53.99 28.55,44.45 28.6,27.81 28.55,9.69 28.59,25.23 28.56,-35.66 28.55,-47.42" /><path
               id="path98"
               style="fill:none;stroke:#009ade;stroke-width:15;stroke-linecap:square;stroke-linejoin:round;stroke-miterlimit:4;stroke-dasharray:none;stroke-opacity:1"
               d="m 429.059,1390.59 28.562,-50.59 28.59,-32.97 28.559,12.15 28.55,59.41 28.59,-8.63 28.559,-48.63 28.59,-69.61 28.562,-52.58 28.551,-16.21 28.598,28.71 28.55,57.7 28.59,21.13 28.559,-51.56 28.551,-42.97 28.601,62.81 28.551,126.91 28.598,94.11 28.55,86.28 28.559,146.96 28.591,127.77 28.55,-31.09 28.6,-150 28.55,-84.85 28.56,55.75 28.59,99.96 28.56,47.97 28.59,23.28 28.55,99.14 28.6,218.08 28.55,237.43 28.56,85.27 28.59,-118.36 28.56,-195.55 28.59,-149.96 28.55,-129.96 28.56,-176.76 28.59,-188.71 28.56,-120 28.59,-42.46 28.56,-12.19 28.55,-5.66 28.59,9.53 28.56,25 28.59,18.01 28.56,-9.77 28.55,-19.49 28.6,16.33 28.55,70.16 28.59,20.39 28.56,16.99 28.55,-10.78" /></g></g><path
           id="path100"
           style="fill:none;stroke:#000000;stroke-width:8;stroke-linecap:square;stroke-linejoin:miter;stroke-miterlimit:4;stroke-dasharray:none;stroke-opacity:1"
           d="M 356.211,923.59 V 2526.84"
           transform="scale(0.1)" /><path
           id="path102"
           style="fill:none;stroke:#000000;stroke-width:8;stroke-linecap:square;stroke-linejoin:miter;stroke-miterlimit:4;stroke-dasharray:none;stroke-opacity:1"
           d="M 356.211,1455.47 H 1958.98"
           transform="scale(0.1)" /><path
           id="path506"
           style="fill:#9c64e0;fill-opacity:1;stroke:#9c64e0;stroke-width:20;stroke-linecap:butt;stroke-linejoin:miter;stroke-miterlimit:4;stroke-dasharray:none;stroke-opacity:1"
           d="m 1481.99,2433.63 0.08,-283.24"
           transform="scale(0.1)" /><path
           id="path508"
           style="fill:#9c64e0;fill-opacity:1;fill-rule:evenodd;stroke:none"
           d="m 1481.99,2443.63 30.04,-30 v -20 l -30,30 -30,-30 v 20 z"
           transform="scale(0.1)" /><text
           xml:space="preserve"
           style="font-style:normal;font-variant:normal;font-weight:normal;font-stretch:normal;font-size:8px;font-family:'open Sans';-inkscape-font-specification:'open Sans';text-align:center;text-anchor:middle;fill:#999999;fill-opacity:1;stroke-width:0.75"
           x="152.88425"
           y="-238.96808"
           id="text2099"
           transform="scale(1,-1)"><tspan
             sodipodi:role="line"
             id="tspan2097"
             style="font-size:8px;text-align:start;text-anchor:start;fill:#999999;fill-opacity:1;stroke-width:0.75"
             x="152.88425"
             y="-238.96808">alignment</tspan><tspan
             sodipodi:role="line"
             style="font-size:8px;text-align:start;text-anchor:start;fill:#999999;fill-opacity:1;stroke-width:0.75"
             x="152.88425"
             y="-228.96808"
             id="tspan2101">increases</tspan><tspan
             sodipodi:role="line"
             style="font-size:8px;text-align:start;text-anchor:start;fill:#999999;fill-opacity:1;stroke-width:0.75"
             x="152.88425"
             y="-218.96808"
             id="tspan2105">P300 SNR</tspan></text></g></g></g></svg>
