<?xml version="1.0" encoding="UTF-8" standalone="no"?>
<!-- Created with Inkscape (http://www.inkscape.org/) -->

<svg
   width="901.67938mm"
   height="166.66818mm"
   viewBox="0 0 901.67938 166.66818"
   version="1.1"
   id="svg1048"
   inkscape:version="1.2.2 (b0a8486541, 2022-12-01)"
   sodipodi:docname="attention_modes.svg"
   xmlns:inkscape="http://www.inkscape.org/namespaces/inkscape"
   xmlns:sodipodi="http://sodipodi.sourceforge.net/DTD/sodipodi-0.dtd"
   xmlns="http://www.w3.org/2000/svg"
   xmlns:svg="http://www.w3.org/2000/svg">
  <sodipodi:namedview
     id="namedview1050"
     pagecolor="#ffffff"
     bordercolor="#666666"
     borderopacity="1.0"
     inkscape:showpageshadow="2"
     inkscape:pageopacity="0.0"
     inkscape:pagecheckerboard="0"
     inkscape:deskcolor="#d1d1d1"
     inkscape:document-units="mm"
     showgrid="false"
     inkscape:zoom="0.22070883"
     inkscape:cx="3830.839"
     inkscape:cy="634.31989"
     inkscape:window-width="1920"
     inkscape:window-height="1131"
     inkscape:window-x="1920"
     inkscape:window-y="32"
     inkscape:window-maximized="1"
     inkscape:current-layer="g892" />
  <defs
     id="defs1045">
    <rect
       x="19.884995"
       y="-67.429123"
       width="1075.759"
       height="50.57682"
       id="rect13287" />
    <rect
       x="19.884995"
       y="-67.429123"
       width="1075.759"
       height="50.57682"
       id="rect13287-5" />
    <rect
       x="19.884995"
       y="-67.429123"
       width="1075.759"
       height="50.57682"
       id="rect13287-5-1" />
  </defs>
  <g
     inkscape:label="Layer 1"
     inkscape:groupmode="layer"
     id="layer1"
     transform="translate(354.12445,-98.976479)">
    <g
       id="g13434"
       transform="translate(-37.877009)"
       inkscape:export-filename="attention_split.pdf"
       inkscape:export-xdpi="1000"
       inkscape:export-ydpi="1000">
      <path
         d="m 355.40574,252.44613 v -7.71947 l 3.23996,-0.13914 c 4.30436,-0.186 6.79357,-0.79109 9.50478,-2.3067 4.1621,-2.33051 7.23566,-6.17092 8.67504,-10.83765 0.52108,-1.68662 0.88189,-4.90097 0.88189,-7.83185 v -2.10156 h 3.0885 c 3.91671,0 4.70159,-0.32055 5.73953,-2.33623 0.85197,-1.65985 0.75343,-1.96391 -4.44699,-13.6642 l -4.78518,-10.77047 -0.0958,-4.08427 c -0.13037,-5.49259 -0.74769,-8.86407 -2.45509,-13.405 -4.46769,-11.88624 -14.72284,-21.03635 -27.30999,-24.36719 -3.82546,-1.01263 -6.17088,-1.30327 -10.62055,-1.31515 -9.45571,-0.0253 -17.47892,2.63031 -24.94693,8.25442 -13.34521,10.0527 -18.85234,27.40125 -13.69719,43.15628 2.1403,6.54242 6.35068,12.88546 11.47139,17.28145 l 1.7913,1.53793 v 38.36842 h 43.96538 z M 327.6989,206.31798 c -0.90033,-0.14685 -2.32004,-0.79062 -2.93744,-1.33279 -0.2082,-0.1829 -0.98686,-0.40605 -1.73109,-0.49577 -1.83478,-0.22047 -3.19476,-0.90029 -4.53675,-2.26491 -0.758,-0.76954 -1.2343,-1.10082 -1.46209,-1.01378 -0.56586,0.21702 -2.8757,-0.30559 -3.97027,-0.90029 -1.37348,-0.74423 -2.80412,-2.4129 -3.352,-3.90904 -0.43749,-1.19514 -0.4628,-1.2193 -1.64034,-1.5594 -1.7852,-0.51494 -3.08076,-1.29828 -4.35535,-2.63606 -3.0989,-3.2484 -3.75341,-7.88096 -1.66404,-11.77812 0.57365,-1.06938 2.26299,-2.94779 3.17976,-3.53328 0.44171,-0.28297 0.4613,-0.37308 0.24114,-1.15642 -0.38343,-1.36423 -0.12879,-3.47922 0.60359,-5.02328 1.34349,-2.82931 3.86108,-4.42015 7.00671,-4.4259 1.23084,-0.002 1.34319,-0.0437 1.62804,-0.59316 0.45052,-0.87192 2.25685,-2.48193 3.47768,-3.1004 1.94708,-0.98694 4.9155,-1.13839 6.66669,-0.3401 0.53289,0.24425 0.62874,0.18712 1.911,-1.11884 2.2077,-2.24803 4.72843,-3.2576 7.70148,-3.08237 2.11039,0.12577 3.72807,0.71586 5.40096,1.97427 l 1.24154,0.93288 1.143,-0.43443 c 1.53524,-0.58242 3.92859,-0.58549 5.57771,-0.006 2.18362,0.76686 4.40942,2.83506 5.05933,4.69852 0.17062,0.48964 0.32514,0.63189 0.57974,0.5345 1.71929,-0.66486 4.13526,-0.50459 5.90401,0.39109 2.35003,1.19055 4.05129,3.75031 4.26563,6.41474 0.10774,1.3374 0.12883,1.37804 0.99154,1.88263 1.25956,0.73848 2.82165,2.49074 3.47616,3.90329 0.5019,1.07973 0.56478,1.47696 0.57092,3.5513 0.004,2.17902 -0.0391,2.43093 -0.65451,3.72768 -1.60886,3.39564 -4.68663,5.27098 -8.27245,5.04016 l -1.53064,-0.0989 -0.33396,1.20281 c -0.7174,2.57779 -3.03138,5.04131 -5.5087,5.86529 -1.15028,0.38189 -3.11842,0.49731 -4.50987,0.26342 -0.84316,-0.14226 -0.85658,-0.13305 -1.7584,1.10082 -2.12227,2.90561 -5.67473,4.67014 -9.40126,4.67014 -1.58777,0 -1.63876,0.0165 -2.47425,0.81172 -1.34963,1.28371 -3.84804,2.24956 -5.26944,2.03714 -0.23347,-0.0345 -0.80248,-0.12461 -1.26378,-0.19938 z m 0.23347,-3.29517 c 3.23501,-0.64071 5.80969,-3.73688 5.80969,-6.98528 v -1.24346 l 0.73392,-0.13765 c 0.92712,-0.17369 1.50687,-0.90297 1.79904,-2.25992 0.2891,-1.35273 0.71126,-1.98768 1.59966,-2.41022 0.9463,-0.44784 1.77603,-0.42369 2.60002,0.0794 0.88648,0.54102 1.35235,1.27911 1.58317,2.50876 0.2592,1.39146 0.97352,2.06706 2.18515,2.06706 1.73731,0 2.48039,-1.30595 2.00839,-3.52868 -0.33089,-1.56362 -0.89568,-2.60309 -2.02181,-3.7296 -3.49877,-3.49877 -9.42081,-2.47119 -11.58062,2.01031 -0.37924,0.78296 -0.71321,1.46009 -0.74319,1.50342 -0.0298,0.0422 -0.46115,-0.27108 -0.95857,-0.6963 -0.88338,-0.75497 -3.06428,-1.61308 -4.10371,-1.61308 -0.44635,0 -0.4748,-0.0721 -0.3758,-0.94515 0.0944,-0.83587 0.033,-1.01838 -0.51835,-1.56975 -0.42986,-0.42982 -0.99618,-0.70091 -1.82128,-0.87307 -0.9195,-0.19018 -1.342,-0.41333 -1.82442,-0.96317 -1.64755,-1.87496 -0.69934,-4.21616 1.93209,-4.77482 1.23433,-0.26188 1.66867,-0.52107 2.03876,-1.21316 0.63192,-1.18901 -0.14229,-2.85308 -1.44863,-3.11535 -1.64724,-0.32936 -4.18013,0.66372 -5.74827,2.2511 l -0.99737,1.00957 -0.0241,-1.10542 c -0.0691,-3.0402 -2.19554,-5.75716 -5.21085,-6.65285 -1.96341,-0.58281 -3.40127,-0.27108 -3.91199,0.84891 -0.70562,1.54905 0.14677,2.98383 1.91246,3.21734 2.71428,0.35965 3.82396,3.3941 1.84854,5.05664 -0.34628,0.29025 -0.9843,0.58856 -1.41838,0.66026 -1.31354,0.2174 -1.96387,0.5529 -2.28706,1.18019 -0.45862,0.88533 -0.38044,1.77335 0.21702,2.48499 0.63955,0.76072 1.45434,0.94937 2.90101,0.6756 1.53819,-0.29217 2.8086,-0.98119 3.99335,-2.16598 l 1.01996,-1.01838 0.0253,1.15181 c 0.015,0.63496 0.12265,1.40641 0.24113,1.71622 0.34164,0.89876 0.26648,1.04254 -0.76221,1.46508 -1.97285,0.81171 -3.81629,3.2921 -4.10118,5.51598 -0.49995,3.91978 1.97423,7.43657 5.77089,8.20496 1.55184,0.31288 2.33983,0.13919 3.0165,-0.66524 1.23268,-1.4647 0.13811,-3.5793 -1.85272,-3.5793 -1.32823,0 -2.82314,-1.80057 -2.62111,-3.15445 0.20088,-1.33893 1.48309,-2.57625 2.67517,-2.58047 0.29221,-0.002 0.80596,-0.14532 1.13993,-0.32054 0.5422,-0.28182 0.73077,-0.28182 1.68486,0.001 0.59162,0.17522 1.32117,0.31939 1.6207,0.31939 0.51943,0 0.54206,0.0476 0.47465,1.01532 -0.0597,0.86731 0.0118,1.09928 0.49113,1.57703 0.3355,0.3355 0.91678,0.62 1.45012,0.70858 1.93946,0.32208 2.90838,1.27451 2.90838,2.85615 0,1.78984 -0.86544,2.61075 -3.25764,3.08697 -2.05479,0.4072 -2.20893,3.39103 -0.21238,4.15022 0.59581,0.22622 0.88188,0.22315 2.12066,-0.0211 z m 23.36495,-14.21825 c 1.18325,-0.25153 2.46697,-0.92713 3.45391,-1.81975 l 0.81325,-0.73388 0.93019,0.51533 c 1.04983,0.58127 2.97463,0.99154 3.8523,0.82207 0.86118,-0.16603 1.64298,-1.19936 1.64298,-2.17174 0,-0.95243 -0.71432,-1.84505 -1.62803,-2.03369 -1.60119,-0.33129 -2.20624,-0.58435 -2.60462,-1.09047 -1.5456,-1.96507 -0.46433,-4.49339 2.06706,-4.82889 1.38379,-0.18404 2.16559,-1.01224 2.16559,-2.29289 0,-0.68902 -0.1319,-0.97966 -0.68288,-1.49345 -0.63227,-0.59009 -0.77721,-0.63189 -1.96353,-0.55252 -2.49535,0.16487 -4.79438,1.71622 -5.98377,4.03941 -0.48082,0.93901 -0.59431,1.49345 -0.69784,3.39103 -0.14225,2.62264 -0.46126,3.27255 -1.85118,3.76372 -1.70012,0.60083 -3.53175,-0.39071 -3.79823,-2.05785 -0.22316,-1.40028 -0.68749,-2.16867 -1.51723,-2.51644 -0.66371,-0.27683 -0.88226,-0.28143 -1.53831,-0.0357 -1.55479,0.5855 -1.85732,2.5475 -0.76838,4.97536 1.36001,3.03176 4.85725,4.80779 8.10872,4.12031 z m -13.83751,-5.0068 c 0.76532,-0.39531 1.20856,-0.91677 1.96775,-2.32472 0.50804,-0.93901 0.5736,-1.2956 0.57667,-3.0793 0.005,-2.54481 -0.51379,-3.76372 -2.4083,-5.66322 -1.23847,-1.24154 -1.30442,-1.35964 -1.30442,-2.33622 0.002,-2.60616 2.29442,-3.82699 4.52597,-2.41138 1.28065,0.81172 1.91599,0.96279 2.68859,0.64224 0.83281,-0.34432 1.28065,-1.08126 1.28065,-2.10885 0,-1.4528 -1.82741,-2.89487 -4.31509,-3.40867 -4.25949,-0.8792 -8.64057,2.59389 -8.64207,6.8507 v 1.10695 l -1.27907,0.37576 c -0.95857,0.28182 -1.54257,0.63074 -2.33519,1.39453 -0.92095,0.88801 -1.05592,1.12612 -1.05128,1.85425 0.008,0.90029 0.22783,1.28793 1.04978,1.85426 0.785,0.54063 1.48728,0.44324 2.76804,-0.38036 1.33464,-0.86118 2.30356,-0.95589 3.33237,-0.32822 1.58467,0.96471 1.88566,2.74534 0.73691,4.345 -1.12306,1.56515 -0.80865,3.15867 0.74308,3.74762 0.70704,0.26955 0.92099,0.25153 1.66561,-0.13037 z m 28.16235,19.00343 c -0.97352,-0.59316 -1.43632,-1.19668 -1.69552,-2.21353 -0.5782,-2.26759 1.05443,-4.40213 3.36535,-4.40213 3.66364,0 4.99222,4.51601 1.93669,6.5754 -0.94975,0.63955 -2.59274,0.65758 -3.60652,0.0403 z"
         style="fill:#1a1a1a;fill-opacity:1;fill-rule:nonzero;stroke:none;stroke-width:0.0383427"
         id="path372" />
      <path
         d="M 425.93106,149.59643 573.50992,130.621 c 5.61223,-0.72046 10.1984,2.88491 10.1984,8.09568 v 116.93003 c 0,5.21686 -4.59077,9.06297 -10.20415,8.62862 L 425.84133,252.8549 c -3.29977,-0.25613 -5.92088,-3.6153 -5.91781,-7.53811 l 0.0778,-87.88732 c 0.005,-3.91671 2.63147,-7.40782 5.92971,-7.83304 z"
         style="fill:#1a1a1a;fill-opacity:1;fill-rule:nonzero;stroke:#00cd6c;stroke-width:2;stroke-dasharray:none;stroke-opacity:1"
         id="path374" />
      <path
         d="m 498.2489,235.11989 c -0.002,4.70013 -3.63183,8.32455 -8.04584,8.0999 -4.345,-0.22469 -7.8154,-4.10957 -7.81387,-8.6839 0.003,-4.57118 3.47922,-8.20189 7.82269,-8.10454 4.41248,0.0959 8.03855,3.98419 8.03702,8.68854 z"
         style="fill:#999999;fill-opacity:1;fill-rule:nonzero;stroke:none;stroke-width:0.0383427"
         id="path378" />
      <path
         d="m 529.34408,179.32547 c 0,4.95464 -4.03212,9.1409 -8.9281,9.35026 -4.81853,0.20551 -8.66469,-3.53022 -8.66316,-8.3407 0.002,-4.80818 3.8523,-8.98677 8.66891,-9.33415 4.8979,-0.35352 8.92389,3.37147 8.92235,8.32459 z"
         style="fill:#999999;fill-opacity:1;fill-rule:nonzero;stroke:none;stroke-width:0.0383427"
         id="path380" />
      <path
         d="m 470.238,182.71918 c -0.003,4.47076 -3.28789,8.23334 -7.28244,8.4055 -3.93741,0.1664 -7.08267,-3.22616 -7.0796,-7.57998 0.003,-4.35113 3.15408,-8.10604 7.08881,-8.39054 3.99608,-0.28757 7.27591,3.09733 7.27323,7.56502 z"
         style="fill:#ffc61e;fill-opacity:1;fill-rule:nonzero;stroke:none;stroke-width:0.0383427"
         id="path382" />
      <path
         d="m 529.33488,214.63069 c -10e-4,4.95464 -4.03327,8.90855 -8.92964,8.83224 -4.81968,-0.0778 -8.6689,-4.03787 -8.6643,-8.84873 0,-4.8124 3.85076,-8.76362 8.6689,-8.83225 4.8979,-0.069 8.92504,3.89256 8.92504,8.84874 z"
         style="fill:#999999;fill-opacity:1;fill-rule:nonzero;stroke:none;stroke-width:0.0383427"
         id="path384" />
      <path
         d="m 470.21844,214.57509 c -0.002,4.4723 -3.2875,8.04469 -7.28358,7.98181 -3.93627,-0.0614 -7.08459,-3.64103 -7.08152,-7.99523 0.003,-4.35228 3.15561,-7.92468 7.09187,-7.97989 3.99455,-0.0571 7.2763,3.52408 7.27323,7.99331 z"
         style="fill:#999999;fill-opacity:1;fill-rule:nonzero;stroke:none;stroke-width:0.0383427"
         id="path386" />
      <path
         d="m 498.2834,160.906 c -0.003,4.69967 -3.6322,8.79007 -8.04277,9.13478 -4.34384,0.33703 -7.81386,-3.0958 -7.81118,-7.66548 0.003,-4.56816 3.47654,-8.6436 7.82,-9.10947 4.40942,-0.47622 8.03549,2.94319 8.03395,7.64017 z"
         style="fill:#999999;fill-opacity:1;fill-rule:nonzero;stroke:none;stroke-width:0.0383427"
         id="path388" />
      <path
         d="M 368.53812,199.48224 486.5141,233.79285"
         style="fill:#2a7fff;fill-opacity:1;fill-rule:nonzero;stroke:none;stroke-width:0.0383427"
         id="path390" />
      <path
         d="m 484.3048,233.15061 -2.37687,1.30591 6.97953,0.0329 -5.90862,-3.71461 z"
         style="fill:#ff2a2a;fill-opacity:1;fill-rule:evenodd;stroke:none;stroke-width:0.0383427"
         id="path394" />
      <path
         d="m 356.52458,162.53097 c 0,0 42.95613,-50.16303 99.86633,11.07453"
         style="fill:none;fill-opacity:1;stroke:#00cd6c;stroke-width:1.91714;stroke-linecap:butt;stroke-linejoin:miter;stroke-miterlimit:4;stroke-dasharray:5.75141, 1.91714;stroke-dashoffset:0;stroke-opacity:1"
         id="path398" />
      <path
         d="m 454.82422,171.92034 -2.7093,-0.10008 5.9715,3.61074 -3.16327,-6.21996 z"
         style="fill:#71c837;fill-opacity:1;fill-rule:evenodd;stroke:none;stroke-width:0.0383427"
         id="path400" />
      <path
         d="m 454.8246,171.92034 -2.70929,-0.10046 5.97111,3.61112 -3.16289,-6.21996 z"
         style="fill:#00cd6c;fill-opacity:1;stroke:#00cd6c;stroke-width:0.511235;stroke-linecap:butt;stroke-linejoin:miter;stroke-miterlimit:4;stroke-dasharray:none;stroke-opacity:1"
         id="path402" />
      <path
         d="M 368.53812,199.48224 486.5141,233.79285"
         style="fill:none;fill-opacity:1;stroke:#00cd6c;stroke-width:1.91714;stroke-linecap:butt;stroke-linejoin:miter;stroke-miterlimit:4;stroke-dasharray:none;stroke-opacity:1"
         id="path392" />
      <path
         d="m 484.3048,233.15061 -2.37687,1.30607 6.97953,0.0329 -5.909,-3.7146 z"
         style="fill:#00cd6c;fill-opacity:1;stroke:#00cd6c;stroke-width:0.511235;stroke-linecap:butt;stroke-linejoin:miter;stroke-miterlimit:4;stroke-dasharray:none;stroke-opacity:1"
         id="path396" />
    </g>
    <g
       id="g13463"
       inkscape:export-filename="attention_overt.pdf"
       inkscape:export-xdpi="1000"
       inkscape:export-ydpi="1000">
      <g
         id="g10407">
        <path
           d="m -294.68735,252.72324 v -7.7584 l 3.25628,-0.13989 c 4.32602,-0.1869 6.82776,-0.795 9.55263,-2.31831 4.18305,-2.34221 7.27208,-6.20195 8.71871,-10.89214 0.5237,-1.69519 0.88633,-4.92564 0.88633,-7.87131 v -2.11215 h 3.10405 c 3.93643,0 4.72526,-0.32216 5.76842,-2.34798 0.85627,-1.66822 0.75723,-1.97381 -4.46938,-13.733 l -4.80926,-10.82469 -0.0963,-4.10483 c -0.13102,-5.52025 -0.75145,-8.90871 -2.46745,-13.4725 -4.49018,-11.94609 -14.79696,-21.14226 -27.44748,-24.48986 -3.84472,-1.01773 -6.20195,-1.30983 -10.67403,-1.32178 -9.5033,-0.0254 -17.56691,2.64355 -25.07252,8.29598 -13.41238,10.10331 -18.94727,27.5392 -13.76614,43.37355 2.15107,6.57536 6.38268,12.95033 11.52913,17.36846 l 1.8004,1.54567 v 38.56159 h 44.18665 z m -27.84633,-46.36046 c -0.90482,-0.14759 -2.3318,-0.7946 -2.95223,-1.3395 -0.20925,-0.18382 -0.99191,-0.40809 -1.73989,-0.49827 -1.84394,-0.22158 -3.2108,-0.90482 -4.55955,-2.27631 -0.76185,-0.77341 -1.24047,-1.10636 -1.46937,-1.01888 -0.56879,0.21811 -2.89018,-0.30713 -3.99038,-0.90482 -1.38035,-0.74798 -2.81812,-2.42506 -3.3688,-3.92872 -0.43969,-1.20116 -0.46512,-1.22544 -1.64856,-1.56725 -1.79422,-0.51754 -3.09635,-1.30482 -4.37727,-2.64934 -3.11447,-3.26475 -3.77227,-7.92064 -1.67246,-11.83741 0.5765,-1.07477 2.27439,-2.96264 3.19578,-3.55108 0.44393,-0.28439 0.46358,-0.37495 0.24238,-1.16224 -0.38535,-1.3711 -0.12947,-3.49673 0.60656,-5.04857 1.35029,-2.84355 3.88055,-4.4424 7.04202,-4.44818 1.237,-0.002 1.34991,-0.0439 1.63623,-0.59615 0.4528,-0.8763 2.26822,-2.49442 3.4952,-3.116 1.95684,-0.99191 4.94028,-1.14413 6.70021,-0.34181 0.53565,0.24547 0.63199,0.18805 1.92062,-1.12448 2.21889,-2.25935 4.75224,-3.274 7.7403,-3.09789 2.12101,0.1264 3.74683,0.71946 5.42815,1.98421 l 1.24779,0.93757 1.14875,-0.43661 c 1.54297,-0.58536 3.94837,-0.58844 5.6058,-0.006 2.19461,0.77072 4.43161,2.84934 5.08479,4.72218 0.17149,0.4921 0.32678,0.63507 0.58266,0.53719 1.72795,-0.66821 4.15608,-0.50713 5.93374,0.39306 2.36186,1.19654 4.07169,3.76918 4.2871,6.44704 0.10829,1.34412 0.12949,1.38497 0.99654,1.8921 1.2659,0.7422 2.83585,2.50329 3.49365,3.92294 0.50444,1.08517 0.56764,1.4844 0.5738,3.56918 0.004,2.18999 -0.0393,2.44317 -0.6578,3.74645 -1.61696,3.41273 -4.71023,5.29751 -8.3141,5.06553 l -1.53835,-0.0994 -0.33564,1.20887 c -0.721,2.59075 -3.04664,5.06668 -5.53643,5.89481 -1.15608,0.38382 -3.13412,0.49981 -4.53258,0.26474 -0.8474,-0.14297 -0.86089,-0.13372 -1.76725,1.10636 -2.13296,2.92024 -5.7033,4.69366 -9.44859,4.69366 -1.59577,0 -1.64702,0.0165 -2.48671,0.81581 -1.35646,1.29017 -3.86745,2.26089 -5.29597,2.0474 -0.23468,-0.0347 -0.80655,-0.12525 -1.27014,-0.20039 z m 0.23468,-3.31176 c 3.25126,-0.64394 5.83894,-3.7557 5.83894,-7.02045 v -1.24971 l 0.73757,-0.13835 c 0.9318,-0.17456 1.51446,-0.90751 1.8081,-2.2713 0.29056,-1.35954 0.71484,-1.99769 1.60771,-2.42235 0.95107,-0.4501 1.78498,-0.42582 2.61312,0.0798 0.89094,0.54374 1.35915,1.28555 1.59114,2.52139 0.2605,1.39847 0.97842,2.07746 2.19615,2.07746 1.74606,0 2.49288,-1.31252 2.01851,-3.54645 -0.33257,-1.57148 -0.9002,-2.61619 -2.032,-3.74837 -3.51638,-3.51639 -9.46823,-2.48363 -11.63895,2.02044 -0.38112,0.78689 -0.71677,1.46744 -0.74683,1.51098 -0.0301,0.0424 -0.46358,-0.27245 -0.96339,-0.69981 -0.88787,-0.75877 -3.07978,-1.6212 -4.12449,-1.6212 -0.44855,0 -0.47707,-0.0725 -0.37765,-0.94991 0.0948,-0.84008 0.0331,-1.02351 -0.521,-1.57765 -0.43199,-0.43199 -1.00116,-0.70443 -1.83045,-0.87746 -0.92409,-0.19114 -1.34875,-0.41541 -1.83353,-0.96802 -1.65588,-1.8844 -0.70289,-4.23739 1.94182,-4.79886 1.24046,-0.2632 1.67707,-0.5237 2.04894,-1.21927 0.63507,-1.19499 -0.14296,-2.86745 -1.45588,-3.13103 -1.6555,-0.33102 -4.20117,0.66705 -5.77728,2.26243 l -1.00232,1.01465 -0.0243,-1.11098 c -0.0694,-3.05551 -2.20656,-5.78615 -5.23701,-6.68635 -1.97342,-0.58574 -3.41851,-0.27244 -3.93181,0.85319 -0.70906,1.55684 0.14759,2.99885 1.92216,3.23353 2.72795,0.36147 3.84318,3.41119 1.85781,5.0821 -0.34797,0.29171 -0.98921,0.59152 -1.42543,0.66359 -1.32024,0.21849 -1.97381,0.55568 -2.29866,1.18613 -0.46089,0.88979 -0.38228,1.78228 0.21811,2.4975 0.64278,0.76455 1.46166,0.95415 2.91562,0.679 1.54605,-0.29364 2.82274,-0.98613 4.0135,-2.17689 l 1.02505,-1.02351 0.0254,1.15762 c 0.015,0.63815 0.12331,1.41349 0.24239,1.72486 0.34336,0.90328 0.26782,1.04779 -0.76609,1.47245 -1.98267,0.81581 -3.83547,3.30869 -4.12179,5.54376 -0.5025,3.93951 1.98421,7.47401 5.80002,8.24627 1.55955,0.31445 2.35145,0.13988 3.03161,-0.6686 1.23893,-1.47206 0.13873,-3.59731 -1.86205,-3.59731 -1.33488,0 -2.83739,-1.80964 -2.6343,-3.17034 0.20193,-1.34567 1.49056,-2.58922 2.68864,-2.59346 0.29364,-0.002 0.81002,-0.14605 1.14567,-0.32216 0.54489,-0.28323 0.73449,-0.28323 1.69326,0.001 0.59461,0.17611 1.32794,0.321 1.62891,0.321 0.52216,0 0.54489,0.0478 0.47707,1.02043 -0.0601,0.87168 0.0119,1.10482 0.49364,1.58498 0.33719,0.33718 0.92139,0.62312 1.45742,0.71214 1.94915,0.3237 2.92294,1.28093 2.92294,2.87053 0,1.79884 -0.86975,2.6239 -3.274,3.10251 -2.06513,0.40925 -2.22004,3.40811 -0.21348,4.17111 0.59884,0.22737 0.88632,0.22428 2.13141,-0.0212 z m 23.48254,-14.29138 c 1.18922,-0.25125 2.47939,-0.93025 3.4713,-1.82736 l 0.81735,-0.73758 0.93487,0.51792 c 1.05511,0.58421 2.98961,0.99654 3.8717,0.82621 0.86551,-0.16686 1.65125,-1.2054 1.65125,-2.18267 0,-0.95723 -0.71792,-1.85434 -1.63623,-2.04393 -1.60925,-0.33295 -2.21734,-0.58729 -2.61773,-1.09596 -1.55338,-1.97496 -0.46667,-4.51601 2.07746,-4.8532 1.39076,-0.18497 2.1765,-1.01734 2.1765,-2.30444 0,-0.69248 -0.13256,-0.98458 -0.68632,-1.50096 -0.63545,-0.59307 -0.78112,-0.63507 -1.97342,-0.5553 -2.50791,0.1657 -4.81851,1.72486 -6.01389,4.05974 -0.48324,0.94374 -0.5973,1.50097 -0.70135,3.4081 -0.14297,2.63585 -0.46358,3.28903 -1.86051,3.78267 -1.70867,0.60386 -3.54953,-0.39268 -3.81735,-2.06821 -0.22428,-1.40733 -0.69095,-2.17958 -1.52486,-2.5291 -0.66706,-0.27823 -0.88671,-0.28285 -1.54605,-0.0358 -1.56263,0.58844 -1.86668,2.56031 -0.77226,5.0004 1.36686,3.04703 4.88171,4.832 8.14954,4.14105 z m -13.90717,-5.03046 c 0.76917,-0.3973 1.21465,-0.92139 1.97765,-2.33642 0.5106,-0.94374 0.5765,-1.30212 0.57958,-3.09481 0.005,-2.55762 -0.51638,-3.78267 -2.42043,-5.69173 -1.24471,-1.24779 -1.31099,-1.36648 -1.31099,-2.34799 0.002,-2.61927 2.30599,-3.84625 4.54877,-2.42351 1.28709,0.8158 1.92563,0.96763 2.70212,0.64547 0.837,-0.34605 1.2871,-1.08671 1.2871,-2.11946 0,-1.46012 -1.83661,-2.90946 -4.33682,-3.42583 -4.28094,-0.88363 -8.68403,2.60694 -8.68558,6.88518 v 1.11253 l -1.28555,0.37765 c -0.96339,0.28324 -1.55029,0.63391 -2.34683,1.40155 -0.92562,0.89248 -1.06127,1.13179 -1.05665,1.86359 0.008,0.90482 0.2289,1.29441 1.05511,1.86359 0.78883,0.54335 1.49481,0.44547 2.7819,-0.38228 1.34143,-0.86551 2.31523,-0.9607 3.34914,-0.32987 1.59269,0.96956 1.89519,2.75916 0.74066,4.36688 -1.12871,1.57303 -0.81272,3.17458 0.74683,3.76648 0.71059,0.27091 0.92562,0.2528 1.67399,-0.13102 z m 28.30414,19.0991 c -0.97843,-0.59615 -1.44355,-1.2027 -1.70405,-2.22467 -0.58112,-2.279 1.05973,-4.42429 3.38228,-4.42429 3.68209,0 5.01736,4.53874 1.94644,6.6085 -0.95453,0.64278 -2.60579,0.66089 -3.62467,0.0405 z"
           style="fill:#1a1a1a;fill-opacity:1;fill-rule:nonzero;stroke:none;stroke-width:2;stroke-dasharray:none;stroke-opacity:1"
           id="path536" />
        <path
           d="m -223.80697,149.35566 148.321874,-19.07097 c 5.640479,-0.72408 10.249745,2.89943 10.249745,8.13645 v 117.51868 c 0,5.24318 -4.613889,9.1087 -10.255527,8.67209 L -223.89714,253.13403 c -3.31639,-0.25742 -5.95069,-3.63354 -5.94761,-7.57613 l 0.0782,-88.32977 c 0.005,-3.93643 2.64471,-7.44511 5.95955,-7.87247 z"
           style="fill:#1a1a1a;fill-opacity:1;fill-rule:nonzero;stroke:#ff1f5b;stroke-width:2;stroke-dasharray:none;stroke-opacity:1"
           id="path538" />
        <path
           d="m -158.70579,195.66602 -0.002,3.37805 3.21235,-0.0859 v 1.03585 l -3.21235,0.0798 -0.003,3.37921 -0.96185,0.0181 0.001,-3.37187 -3.16533,0.0767 v -1.02197 l 3.16687,-0.0859 0.002,-3.37304 z"
           style="fill:#ffffff;fill-opacity:1;fill-rule:nonzero;stroke:none;stroke-width:0.38536"
           id="path540" />
        <path
           d="m -151.12503,235.3097 c -0.002,4.72371 -3.65011,8.3665 -8.08635,8.14068 -4.36687,-0.22582 -7.85474,-4.13027 -7.8532,-8.72758 0.003,-4.59424 3.49673,-8.24319 7.86206,-8.14531 4.4347,0.0963 8.07903,4.00425 8.07749,8.73221 z"
           style="fill:#999999;fill-opacity:1;fill-rule:nonzero;stroke:none;stroke-width:0.38536"
           id="path542" />
        <path
           d="m -119.87329,179.23437 c 0,4.97959 -4.05243,9.18693 -8.97306,9.39733 -4.84279,0.20655 -8.70831,-3.54799 -8.70677,-8.38268 0.002,-4.83239 3.87169,-9.03202 8.71255,-9.38115 4.92256,-0.3553 8.96881,3.38845 8.96728,8.3665 z"
           style="fill:#999999;fill-opacity:1;fill-rule:nonzero;stroke:none;stroke-width:0.38536"
           id="path544" />
        <path
           d="m -179.27696,182.64517 c -0.003,4.49327 -3.30444,8.27479 -7.31909,8.44781 -3.95724,0.16725 -7.11833,-3.24239 -7.11525,-7.61813 0.003,-4.37304 3.16995,-8.14685 7.12449,-8.43279 4.0162,-0.28901 7.31255,3.11293 7.30985,7.60311 z"
           style="fill:#ffc61e;fill-opacity:1;fill-rule:nonzero;stroke:none;stroke-width:0.38536"
           id="path546" />
        <path
           d="m -119.88254,214.71734 c -10e-4,4.97959 -4.05358,8.9534 -8.9746,8.87671 -4.84395,-0.0782 -8.71255,-4.0582 -8.70792,-8.89329 0,-4.83662 3.87014,-8.80773 8.71254,-8.8767 4.92257,-0.0694 8.96998,3.91214 8.96998,8.89328 z"
           style="fill:#999999;fill-opacity:1;fill-rule:nonzero;stroke:none;stroke-width:0.38536"
           id="path548" />
        <path
           d="m -179.29661,214.66146 c -0.002,4.49481 -3.30406,8.08519 -7.32025,8.02199 -3.95609,-0.0616 -7.12026,-3.65936 -7.11718,-8.03548 0.003,-4.37419 3.1715,-7.96457 7.12758,-8.02006 4.01466,-0.0574 7.31294,3.54182 7.30985,8.03355 z"
           style="fill:#999999;fill-opacity:1;fill-rule:nonzero;stroke:none;stroke-width:0.38536"
           id="path550" />
        <path
           d="m -151.09035,160.72217 c -0.003,4.72333 -3.6505,8.83433 -8.08326,9.18076 -4.36572,0.33873 -7.85321,-3.11137 -7.85051,-7.70407 0.003,-4.59115 3.49404,-8.68712 7.85937,-9.15533 4.43161,-0.47861 8.07594,2.95801 8.0744,7.67864 z"
           style="fill:#999999;fill-opacity:1;fill-rule:nonzero;stroke:none;stroke-width:0.38536"
           id="path552" />
        <g
           id="g554"
           transform="matrix(0.3853577,0,0,0.3853577,-354.12415,130.19298)"
           style="stroke:#ff1f5b;stroke-opacity:1">
          <path
             d="m 188.488,179.832 309.403,0.621"
             style="fill:none;stroke:#ff1f5b;stroke-width:5;stroke-linecap:butt;stroke-linejoin:miter;stroke-miterlimit:4;stroke-dasharray:none;stroke-opacity:1"
             id="path556" />
        </g>
        <g
           id="g558"
           transform="matrix(-0.3853577,-7.748725e-4,7.748725e-4,-0.3853577,-354.12415,130.19298)"
           style="fill:#ff1f5b;fill-opacity:1;stroke:#ff1f5b;stroke-opacity:1">
          <path
             d="m -492.251,-179.452 4.997,-4.998 -17.497,5 17.498,5 z"
             style="fill:#ff1f5b;fill-opacity:1;fill-rule:evenodd;stroke:#ff1f5b;stroke-width:1.33333;stroke-linecap:butt;stroke-linejoin:miter;stroke-miterlimit:4;stroke-dasharray:none;stroke-opacity:1"
             id="path560" />
        </g>
        <g
           id="g562"
           transform="matrix(0.3853577,0,0,0.3853577,-354.12415,130.19298)"
           style="stroke:#ff1f5b;stroke-opacity:1">
          <path
             d="m 157.156,83.461 c 0,0 112.032,-130.828 260.457,28.883"
             style="fill:none;stroke:#ff1f5b;stroke-width:5;stroke-linecap:butt;stroke-linejoin:miter;stroke-miterlimit:4;stroke-dasharray:15, 5;stroke-dashoffset:0;stroke-opacity:1"
             id="path564" />
        </g>
        <g
           id="g566"
           transform="matrix(-0.35812754,-0.3853577,0.3853577,-0.35812754,-354.12415,130.19298)"
           style="fill:#ff1f5b;fill-opacity:1;stroke:#ff1f5b;stroke-opacity:1">
          <path
             d="m -264.133,168.059 3.664,-3.661 -12.819,3.66 12.818,3.663 z"
             style="fill:#ff1f5b;fill-opacity:1;fill-rule:evenodd;stroke:#ff1f5b;stroke-width:0.976685;stroke-linecap:butt;stroke-linejoin:miter;stroke-miterlimit:4;stroke-dasharray:none;stroke-opacity:1"
             id="path568" />
        </g>
      </g>
      <g
         id="g2853"
         transform="translate(305.81187)">
        <rect
           style="fill:#009ade;fill-opacity:1;stroke:none;stroke-width:15.3962;stroke-linecap:round;stroke-opacity:1"
           id="rect5016-6"
           width="289.88913"
           height="26.453608"
           x="-354.12445"
           y="98.976479" />
        <text
           xml:space="preserve"
           transform="matrix(1.0276844,0,0,1.0276844,-283.32213,173.95202)"
           id="text13285"
           style="font-style:normal;font-weight:normal;font-size:13.731px;line-height:1.25;font-family:sans-serif;white-space:pre;shape-inside:url(#rect13287);display:inline;fill:#ffffff;fill-opacity:1;stroke:none"><tspan
             x="19.884766"
             y="-54.936191"
             id="tspan4324"><tspan
               style="font-weight:bold;font-family:'Open Sans';-inkscape-font-specification:'Open Sans, @wght=700';font-variation-settings:'wght' 700"
               id="tspan4322">overt attention</tspan></tspan></text>
      </g>
    </g>
    <g
       id="g892"
       transform="matrix(0.38513561,0,0,0.38513561,-48.145758,130.23172)"
       inkscape:export-filename="attention_covert.pdf"
       inkscape:export-xdpi="1000"
       inkscape:export-ydpi="1000">
      <path
         d="m 154.238,317.965 v -20.133 l 8.45,-0.363 c 11.226,-0.485 17.718,-2.063 24.789,-6.016 10.855,-6.078 18.871,-16.094 22.625,-28.265 1.359,-4.399 2.3,-12.782 2.3,-20.426 v -5.481 h 8.055 c 10.215,0 12.262,-0.836 14.969,-6.093 2.222,-4.329 1.965,-5.122 -11.598,-35.637 l -12.48,-28.09 -0.25,-10.652 c -0.34,-14.325 -1.95,-23.118 -6.403,-34.961 -11.652,-31 -38.398,-54.864 -71.226,-63.551 -9.977,-2.641 -16.094,-3.399 -27.699,-3.43 -24.661,-0.066 -45.586,6.86 -65.063,21.528 -34.805,26.218 -49.168,71.464 -35.723,112.554 5.582,17.063 16.563,33.606 29.918,45.071 l 4.672,4.011 V 338.098 H 154.238 Z M 81.977,197.66 c -2.348,-0.383 -6.051,-2.062 -7.661,-3.476 -0.543,-0.477 -2.574,-1.059 -4.515,-1.293 -4.785,-0.575 -8.332,-2.348 -11.832,-5.907 -1.977,-2.007 -3.219,-2.871 -3.813,-2.644 -1.476,0.566 -7.5,-0.797 -10.355,-2.348 -3.582,-1.941 -7.313,-6.293 -8.742,-10.195 -1.141,-3.117 -1.207,-3.18 -4.278,-4.067 -4.656,-1.343 -8.035,-3.386 -11.359,-6.875 -8.082,-8.472 -9.789,-20.554 -4.34,-30.718 1.496,-2.789 5.902,-7.688 8.293,-9.215 1.152,-0.738 1.203,-0.973 0.629,-3.016 -1,-3.558 -0.336,-9.074 1.574,-13.101 3.504,-7.379 10.07,-11.528 18.274,-11.543 3.21,-0.004 3.503,-0.114 4.246,-1.547 1.175,-2.274 5.886,-6.473 9.07,-8.086 5.078,-2.574 12.82,-2.969 17.387,-0.887 1.39,0.637 1.64,0.488 4.984,-2.918 5.758,-5.863 12.332,-8.496 20.086,-8.039 5.504,0.328 9.723,1.867 14.086,5.149 l 3.238,2.433 2.981,-1.133 c 4.004,-1.519 10.246,-1.527 14.547,-0.015 5.695,2 11.5,7.394 13.195,12.254 0.445,1.277 0.848,1.648 1.512,1.394 4.484,-1.734 10.785,-1.316 15.398,1.02 6.129,3.105 10.566,9.781 11.125,16.73 0.281,3.488 0.336,3.594 2.586,4.91 3.285,1.926 7.359,6.496 9.066,10.18 1.309,2.816 1.473,3.852 1.489,9.262 0.011,5.683 -0.102,6.34 -1.707,9.722 -4.196,8.856 -12.223,13.747 -21.575,13.145 l -3.992,-0.258 -0.871,3.137 c -1.871,6.723 -7.906,13.148 -14.367,15.297 -3,0.996 -8.133,1.297 -11.762,0.687 -2.199,-0.371 -2.234,-0.347 -4.586,2.871 -5.535,7.578 -14.8,12.18 -24.519,12.18 -4.141,0 -4.274,0.043 -6.453,2.117 -3.52,3.348 -10.036,5.867 -13.743,5.313 -0.609,-0.09 -2.093,-0.325 -3.296,-0.52 z m 0.609,-8.594 c 8.437,-1.671 15.152,-9.746 15.152,-18.218 v -3.243 l 1.914,-0.359 c 2.418,-0.453 3.93,-2.355 4.692,-5.894 0.754,-3.528 1.855,-5.184 4.172,-6.286 2.468,-1.168 4.632,-1.105 6.781,0.207 2.312,1.411 3.527,3.336 4.129,6.543 0.676,3.629 2.539,5.391 5.699,5.391 4.531,0 6.469,-3.406 5.238,-9.203 -0.863,-4.078 -2.336,-6.789 -5.273,-9.727 -9.125,-9.125 -24.57,-6.445 -30.203,5.243 -0.989,2.042 -1.86,3.808 -1.938,3.921 -0.078,0.11 -1.203,-0.707 -2.5,-1.816 -2.304,-1.969 -7.992,-4.207 -10.703,-4.207 -1.164,0 -1.238,-0.188 -0.98,-2.465 0.246,-2.18 0.086,-2.656 -1.352,-4.094 -1.121,-1.121 -2.598,-1.828 -4.75,-2.277 -2.398,-0.496 -3.5,-1.078 -4.758,-2.512 -4.297,-4.89 -1.824,-10.996 5.039,-12.453 3.219,-0.683 4.352,-1.359 5.317,-3.164 1.648,-3.101 -0.371,-7.441 -3.778,-8.125 -4.296,-0.859 -10.902,1.731 -14.992,5.871 l -2.601,2.633 -0.063,-2.883 c -0.18,-7.929 -5.726,-15.015 -13.59,-17.351 -5.121,-1.52 -8.871,-0.707 -10.203,2.214 -1.84,4.04 0.383,7.782 4.988,8.391 7.079,0.938 9.973,8.852 4.821,13.188 -0.903,0.757 -2.567,1.535 -3.699,1.722 -3.426,0.567 -5.122,1.442 -5.965,3.078 -1.196,2.309 -0.992,4.625 0.566,6.481 1.668,1.984 3.793,2.476 7.566,1.762 4.012,-0.762 7.325,-2.559 10.415,-5.649 l 2.66,-2.656 0.066,3.004 c 0.039,1.656 0.32,3.668 0.629,4.476 0.891,2.344 0.695,2.719 -1.988,3.821 -5.145,2.117 -9.953,8.586 -10.696,14.386 -1.304,10.223 5.149,19.395 15.051,21.399 4.047,0.816 6.102,0.363 7.867,-1.735 3.215,-3.82 0.36,-9.335 -4.832,-9.335 -3.464,0 -7.363,-4.696 -6.836,-8.227 0.524,-3.492 3.868,-6.719 6.977,-6.73 0.762,-0.004 2.102,-0.379 2.973,-0.836 1.414,-0.735 1.906,-0.735 4.394,0.003 1.543,0.457 3.446,0.833 4.227,0.833 1.355,0 1.414,0.124 1.238,2.648 -0.156,2.262 0.031,2.867 1.281,4.113 0.875,0.875 2.391,1.617 3.782,1.848 5.058,0.84 7.585,3.324 7.585,7.449 0,4.668 -2.257,6.809 -8.496,8.051 -5.359,1.062 -5.761,8.844 -0.554,10.824 1.554,0.59 2.3,0.582 5.531,-0.055 z m 60.937,-37.086 c 3.086,-0.652 6.434,-2.414 9.008,-4.742 l 2.121,-1.914 2.426,1.344 c 2.738,1.516 7.758,2.586 10.047,2.144 2.246,-0.433 4.285,-3.128 4.285,-5.664 0,-2.484 -1.863,-4.812 -4.246,-5.304 -4.176,-0.864 -5.754,-1.524 -6.793,-2.844 -4.031,-5.125 -1.211,-11.719 5.391,-12.594 3.609,-0.48 5.648,-2.64 5.648,-5.98 0,-1.797 -0.344,-2.555 -1.781,-3.895 -1.649,-1.539 -2.027,-1.648 -5.121,-1.441 -6.508,0.43 -12.504,4.476 -15.606,10.535 -1.254,2.449 -1.55,3.895 -1.82,8.844 -0.371,6.84 -1.203,8.535 -4.828,9.816 -4.434,1.567 -9.211,-1.019 -9.906,-5.367 -0.582,-3.652 -1.793,-5.656 -3.957,-6.563 -1.731,-0.722 -2.301,-0.734 -4.012,-0.093 -4.055,1.527 -4.844,6.644 -2.004,12.976 3.547,7.907 12.668,12.539 21.148,10.746 z m -36.089,-13.054 c 1.996,-1.031 3.152,-2.391 5.132,-6.063 1.325,-2.449 1.496,-3.379 1.504,-8.031 0.012,-6.637 -1.34,-9.816 -6.281,-14.77 -3.23,-3.238 -3.402,-3.546 -3.402,-6.093 0.004,-6.797 5.984,-9.981 11.804,-6.289 3.34,2.117 4.997,2.511 7.012,1.675 2.172,-0.898 3.34,-2.82 3.34,-5.5 0,-3.789 -4.766,-7.55 -11.254,-8.89 C 104.18,82.672 92.754,91.73 92.75,102.832 v 2.887 l -3.336,0.98 c -2.5,0.735 -4.023,1.645 -6.09,3.637 -2.402,2.316 -2.754,2.937 -2.742,4.836 0.02,2.348 0.594,3.359 2.738,4.836 2.047,1.41 3.879,1.156 7.219,-0.992 3.481,-2.246 6.008,-2.493 8.691,-0.856 4.133,2.516 4.918,7.16 1.922,11.332 -2.929,4.082 -2.109,8.238 1.938,9.774 1.844,0.703 2.402,0.656 4.344,-0.34 z m 73.449,49.562 c -2.539,-1.547 -3.746,-3.121 -4.422,-5.773 -1.508,-5.914 2.75,-11.481 8.777,-11.481 9.555,0 13.02,11.778 5.051,17.149 -2.477,1.668 -6.762,1.715 -9.406,0.105 z"
         style="fill:#1a1a1a;fill-opacity:1;fill-rule:nonzero;stroke:none"
         id="path894" />
      <path
         d="M 338.172,49.727 723.066,0.238 c 14.637,-1.879 26.598,7.524 26.598,21.114 v 304.96 c 0,13.606 -11.973,23.637 -26.613,22.504 L 337.938,319.031 c -8.606,-0.668 -15.442,-9.429 -15.434,-19.66 l 0.203,-229.215 c 0.012,-10.215 6.863,-19.32 15.465,-20.429 z"
         style="fill:#1a1a1a;fill-opacity:1;fill-rule:nonzero;stroke:#009ade;stroke-width:5.19298;stroke-dasharray:none;stroke-opacity:1"
         id="path896" />
      <path
         d="m 526.781,272.777 c -0.004,12.258 -9.472,21.711 -20.984,21.125 -11.332,-0.586 -20.383,-10.718 -20.379,-22.648 0.008,-11.922 9.074,-21.391 20.402,-21.137 11.508,0.25 20.965,10.391 20.961,22.66 z"
         style="fill:#999999;fill-opacity:1;fill-rule:nonzero;stroke:none"
         id="path900" />
      <path
         d="m 607.879,127.262 c 0,12.922 -10.516,23.84 -23.285,24.386 -12.567,0.536 -22.598,-9.207 -22.594,-21.753 0.004,-12.54 10.047,-23.438 22.609,-24.344 12.774,-0.922 23.274,8.793 23.27,21.711 z"
         style="fill:#999999;fill-opacity:1;fill-rule:nonzero;stroke:none"
         id="path902" />
      <path
         d="m 453.727,136.113 c -0.008,11.66 -8.575,21.473 -18.993,21.922 -10.269,0.434 -18.472,-8.414 -18.464,-19.769 0.007,-11.348 8.226,-21.141 18.488,-21.883 10.422,-0.75 18.976,8.078 18.969,19.73 z"
         style="fill:#ffc61e;fill-opacity:1;fill-rule:nonzero;stroke:none"
         id="path904" />
      <path
         d="m 607.855,219.34 c -0.003,12.922 -10.519,23.234 -23.289,23.035 -12.57,-0.203 -22.609,-10.531 -22.597,-23.078 0,-12.551 10.043,-22.856 22.609,-23.035 12.774,-0.18 23.277,10.152 23.277,23.078 z"
         style="fill:#999999;fill-opacity:1;fill-rule:nonzero;stroke:none"
         id="path906" />
      <path
         d="m 453.676,219.195 c -0.004,11.664 -8.574,20.981 -18.996,20.817 -10.266,-0.16 -18.477,-9.496 -18.469,-20.852 0.008,-11.351 8.23,-20.668 18.496,-20.812 10.418,-0.149 18.977,9.191 18.969,20.847 z"
         style="fill:#999999;fill-opacity:1;fill-rule:nonzero;stroke:none"
         id="path908" />
      <path
         d="m 526.871,79.223 c -0.008,12.257 -9.473,22.925 -20.976,23.824 -11.329,0.879 -20.379,-8.074 -20.372,-19.992 0.008,-11.914 9.067,-22.543 20.395,-23.758 11.5,-1.242 20.957,7.676 20.953,19.926 z"
         style="fill:#999999;fill-opacity:1;fill-rule:nonzero;stroke:none"
         id="path910" />
      <g
         id="g912"
         style="stroke:#009ade;stroke-opacity:1">
        <path
           d="m 188.488,179.832 217.36,-35.77"
           style="fill:none;stroke:#009ade;stroke-width:5;stroke-linecap:butt;stroke-linejoin:miter;stroke-miterlimit:4;stroke-dasharray:none;stroke-opacity:1"
           id="path914" />
      </g>
      <g
         id="g916"
         transform="matrix(-1,0.164558,-0.164558,-1,0,0)"
         style="fill:#009ade;fill-opacity:1;stroke:#009ade;stroke-opacity:1">
        <path
           d="m -366.144,-205.287 4.933,-4.935 -17.269,4.932 17.27,4.936 z"
           style="fill:#009ade;fill-opacity:1;fill-rule:evenodd;stroke:#009ade;stroke-width:1.31564;stroke-linecap:butt;stroke-linejoin:miter;stroke-miterlimit:4;stroke-dasharray:none;stroke-opacity:1"
           id="path918" />
      </g>
      <g
         id="g920"
         style="stroke:#009ade;stroke-opacity:1">
        <path
           d="m 157.156,83.461 c 0,0 112.032,-130.828 260.457,28.883"
           style="fill:none;stroke:#009ade;stroke-width:5;stroke-linecap:butt;stroke-linejoin:miter;stroke-miterlimit:4;stroke-dasharray:15, 5;stroke-dashoffset:0;stroke-opacity:1"
           id="path922" />
      </g>
      <g
         id="g924"
         transform="matrix(-0.929338,-1,1,-0.929338,0,0)"
         style="fill:#009ade;fill-opacity:1;stroke:#009ade;stroke-opacity:1">
        <path
           d="m -264.133,168.059 3.664,-3.661 -12.819,3.66 12.818,3.663 z"
           style="fill:#009ade;fill-opacity:1;fill-rule:evenodd;stroke:#009ade;stroke-width:0.976685;stroke-linecap:butt;stroke-linejoin:miter;stroke-miterlimit:4;stroke-dasharray:none;stroke-opacity:1"
           id="path926" />
      </g>
    </g>
    <g
       id="g13556"
       transform="translate(-305.89511)">
      <rect
         style="fill:#ff1f5b;fill-opacity:1;stroke:none;stroke-width:15.3962;stroke-linecap:round;stroke-opacity:1"
         id="rect5016-6-6"
         width="289.88913"
         height="26.453608"
         x="-48.229336"
         y="98.976479" />
      <text
         xml:space="preserve"
         transform="matrix(1.0276844,0,0,1.0276844,22.572993,173.95202)"
         id="text13285-2"
         style="font-style:normal;font-weight:normal;font-size:13.731px;line-height:1.25;font-family:sans-serif;white-space:pre;shape-inside:url(#rect13287-5);display:inline;fill:#ffffff;fill-opacity:1;stroke:none"><tspan
           x="19.884766"
           y="-54.936191"
           id="tspan4328"><tspan
             style="font-weight:bold;font-family:'Open Sans';-inkscape-font-specification:'Open Sans, @wght=700';font-variation-settings:'wght' 700"
             id="tspan4326">covert attention</tspan></tspan></text>
    </g>
    <g
       id="g13598"
       transform="translate(-0.72360829)">
      <rect
         style="fill:#00cd6c;fill-opacity:1;stroke:none;stroke-width:15.3962;stroke-linecap:round;stroke-opacity:1"
         id="rect5016-6-6-9"
         width="289.88913"
         height="26.453608"
         x="258.3894"
         y="98.976479" />
      <text
         xml:space="preserve"
         transform="matrix(1.0276844,0,0,1.0276844,332.52901,172.32925)"
         id="text13285-2-2"
         style="font-style:normal;font-weight:normal;font-size:13.731px;line-height:1.25;font-family:sans-serif;white-space:pre;shape-inside:url(#rect13287-5-1);display:inline;fill:#ffffff;fill-opacity:1;stroke:none"><tspan
           x="19.884766"
           y="-54.936191"
           id="tspan4332"><tspan
             style="font-weight:bold;font-family:'Open Sans';-inkscape-font-specification:'Open Sans, @wght=700';font-variation-settings:'wght' 700"
             id="tspan4330">split attention</tspan></tspan></text>
    </g>
  </g>
</svg>
